<svg xmlns="http://www.w3.org/2000/svg" viewBox="0 0 348.87 345.08"><defs><style>.cls-1{fill:#49b9af;}.cls-1,.cls-2,.cls-3{fill-rule:evenodd;}.cls-2{fill:#335e8f;}.cls-3{fill:#3382cf;}.cls-4{fill:#fff;}</style></defs><title>logo</title><g id="Camada_2" data-name="Camada 2"><g id="Camada_1-2" data-name="Camada 1"><path class="cls-1" d="M295.37,343.81H327.9V342.1H313c4.75-7.07,9.8-13.89,14.5-21H309.92v1.72h13.29l-6.62,9.65c-1.16,1.77-2.12,3.08-3.33,4.8-1,1.57-2.83,3.44-3.33,5.2-1.67-.91-10-.4-12.38-.4V331.39h7.27v-1.72h-7.27v-6.82h11.11v-1.72H295.37Z"/><path class="cls-1" d="M251.32,342.1h-6.42v-9c6.62,0,10.71-1.06,10.71,5.15a4.11,4.11,0,0,1-4.29,3.84Zm-.4-10.71h-6v-8.54h6a4.27,4.27,0,1,1,0,8.54Zm-8.13,12.43c7.73,0,13.24,1.46,15-4.7a6.3,6.3,0,0,0-2.58-6.87c1.67-2.53,2.12-1.87,2.12-5.56,0-2.42-2.73-5.56-5.15-5.56h-9.4Z"/><path class="cls-2" d="M49.05,343.81h1.67V325.43c1.52,1,6.31,7.78,7.78,9.75l7.63,9.9V321.13H64.41V340l-11.27-14.8c-1.21-1.62-2.63-3.89-4.09-4.9Z"/><path class="cls-1" d="M339.42,325.83c.66,2.83,2,5.05,2.58,7.73h-5.56l2-5.76c.45-1.31.25-1.06,1-2Zm-9.8,18a9.18,9.18,0,0,0,2.58.4l2.63-7.17c.91-2.27-.2-1.77,7.17-1.77,1.41,0,1.57,1.46,2.63,4.19.66,1.62,1.26,3.18,2.07,4.75a12.81,12.81,0,0,0,2.17-.4L340.53,323c-.51-1.31-.56-2-1.52-2.73Z"/><path class="cls-2" d="M144,343c-5.1,0-9.85-4.75-9.85-8.54v-3c0-10.81,18.74-12.93,19.6,1C154,337.7,149.18,343,144,343Zm-1.26,1.26h2.12c5.66,0,10.71-5.76,10.71-11.52s-5.05-11.57-10.71-11.57h-2.12c-5.61,0-10.61,6.06-10.61,11.57s5,11.52,10.61,11.52Z"/><path class="cls-2" d="M33.19,343c-5.1,0-9.8-4.75-9.8-8.54v-3c0-10.81,18.69-12.93,19.55,1,.3,5.35-4.55,10.61-9.75,10.61Zm-1.26,1.26h2.12c5.66,0,10.71-5.76,10.71-11.52s-5.05-11.57-10.71-11.57H31.93c-5.61,0-10.56,6.06-10.56,11.57s5,11.52,10.56,11.52Z"/><path class="cls-2" d="M196.16,342.5h-4.7V322.44c4.6,0,8.34-.51,11.87,2.68,6,5.46,3.13,17.38-7.17,17.38Zm-6.42,1.31h8.13c5,0,10.25-5.3,10.25-10.25v-2.17c0-4.85-5.35-10.25-10.25-10.25h-8.13Z"/><path class="cls-2" d="M116.59,342.5h-4.7V322.44c4.6,0,8.39-.51,11.87,2.68,6,5.46,3.13,17.38-7.17,17.38Zm-6.42,1.31h8.13c5,0,10.25-5.3,10.25-10.25v-2.17c0-4.85-5.35-10.25-10.25-10.25h-8.13Z"/><path class="cls-2" d="M165.8,333.56h-4.7V322.44c5.25,0,9.85-.66,9.85,6.42,0,2.37-2.83,4.7-5.15,4.7Zm-6.42,10.25h1.72v-9c6.57,0,5-.45,7.17,2.22l4,5.41c1.11,1.52.86,1.36,3.33,1.36-.61-.86-1.06-1.31-1.72-2.12-1.21-1.57-4.8-6.06-5.15-7.27,3.59-2.42,3.84-2.93,3.84-6.87a5.86,5.86,0,0,0-1.62-4.29c-2.93-2.88-6.77-2.12-11.62-2.12Z"/><polygon class="cls-1" points="262.03 343.81 276.12 343.81 276.12 342.1 264.15 342.1 264.15 331.39 271.43 331.39 271.43 329.67 264.15 329.67 264.15 322.85 275.27 322.85 275.27 321.13 262.03 321.13 262.03 343.81"/><path class="cls-2" d="M96.94,325c1.31,1,.61.56,2,4a23.73,23.73,0,0,1,1.46,4.55H94c.45-2.07,2.78-6.42,3-8.59Zm-9,18.84,1.72.45c.66-2.78,3.18-6.87,3.44-9.45h8.13c.1.61,3.23,8.34,3.44,8.59.4.56.71,1.46,1.62.51.61-.56.15-.86-.25-1.87-1.26-3-7.48-20.16-9.09-21.32-.81,3.44-8.34,20.36-9,23.09Z"/><path class="cls-2" d="M219.24,325c1.36,1,.66.56,2,4a20.66,20.66,0,0,1,1.46,4.55h-6.42c.51-2.07,2.83-6.42,3-8.59Zm-8.94,18.84,1.67.45c.66-2.78,3.23-6.87,3.44-9.45h8.13c.15.61,3.23,8.34,3.44,8.59,1.06,1.46,2.53,1.46,1.36-1.36l-5.15-12.83c-.61-1.52-1.16-2.93-1.72-4.29-.61-1.57-1-3.33-2.22-4.19a38.85,38.85,0,0,1-2.07,5.61L212.52,338a41.91,41.91,0,0,0-2.22,5.86Z"/><path class="cls-2" d="M10.56,343.81c3,0,7-.1,8.94-3-3.08-2.07-2.42,1.67-7.68,1.67-4.9,0-9.85-4.09-9.85-8.94v-2.17c0-5,6.16-11.32,13.54-7.93,2.42,1.11.66,1.26,3.13.66C17.43,319.41.36,319,0,332.3c-.15,6.37,5.51,11.52,10.56,11.52Z"/><polygon class="cls-1" points="278.3 343.81 293.25 343.81 293.25 342.1 280.42 342.1 280.42 321.13 278.3 321.13 278.3 343.81"/><polygon class="cls-2" points="68.7 322.44 77.7 322.44 77.7 343.81 79.41 343.81 79.41 322.44 88.41 322.44 88.41 321.13 68.7 321.13 68.7 322.44"/><path class="cls-1" d="M279.41,117.9l-.2.05L261,141.14c-9.5,12-125.18,157.56-127.45,159.68l.05.71,11.57,2.53c4.14.86,7.73,1.31,12.28,1.82,5.91.71,21,1.62,27.78.71C204,304,202.12,305,221.11,299.66l10.71-3.84c47.94-19.2,79.92-59.1,92.09-107.6,2-7.88,2.83-16.11,3.79-24.9,1.62-14.5-1.52-38-5.41-51.32a147.55,147.55,0,0,0-7.63-21c-.86-1.82-1.26-3-2.12-4.7l-7.68-14c-1.62,3.64-4.39,8.18-6.37,11.77-2.22,3.94-4.24,7.32-6.26,11.27-1.57,3-11.67,21.62-12.83,22.58Z"/><path class="cls-2" d="M133.57,300.82c2.27-2.12,118-147.66,127.45-159.68L279.21,118l-81.48,11.32a1.1,1.1,0,0,0-.2-.25l-5.25-15.76c-1.72-5.46-3.38-11-5.1-16.27L133.62,70.62Z"/><path class="cls-1" d="M27.53,197.22c3-2.53,36.27-43.95,43.9-52.23a48.91,48.91,0,0,1,3.74-4.5l11.62-14c6.11-7.88,16.72-19.6,23.39-27.94L118,89.16c2-2.27,15-17.33,15.21-18.94l-62-30.61C42.29,67,26.57,97.75,21.67,137.4c-.51,4.19-.2,8.89-.81,12.93-.66,4.34.86,19.6,1.62,25,.35,2.68,3.28,19.3,5.05,21.92Z"/><path class="cls-1" d="M71.43,145l62.13,155.84.05-230.2-.45-.4C132.91,71.83,120,86.89,118,89.16l-7.78,9.35c-6.67,8.34-17.28,20.05-23.39,27.94l-11.62,14a48.91,48.91,0,0,0-3.74,4.5Z"/><path class="cls-2" d="M27.53,197.22c.15,6.26,11.37,29.3,16.06,36.47a205.58,205.58,0,0,0,13.69,18.84c9.35,12,26.67,25.61,39.45,33.29a173.49,173.49,0,0,0,17.33,8.74c3.08,1.36,6.26,2.58,9.55,3.74,3.13,1.06,7.38,2,10,3.23l-.05-.71L71.43,145c-7.63,8.28-40.87,49.71-43.9,52.23Z"/><path class="cls-1" d="M157,.86,187.17,97c1.72,5.3,3.38,10.81,5.1,16.27L197.52,129a1.1,1.1,0,0,1,.2.25L242.18,16.11l-.1-.25c-1.06-1.36-6.67-3.38-8.18-4-3.28-1.36-6-2.27-9.29-3.54a78.16,78.16,0,0,0-9.8-3,151.76,151.76,0,0,0-21-4.24A92.52,92.52,0,0,0,182,0c-12,.05-13.24,0-25,.86Z"/><path class="cls-3" d="M71.18,39.6l62,30.61.45.4L187.17,97,157,.86c-12,0-38.09,8.64-48.45,13.84-3.64,1.82-6.62,3.33-10.1,5.25-13.18,7.22-26.07,19-27.23,19.65Z"/><polygon class="cls-3" points="197.72 129.27 279.21 117.95 279.41 117.91 242.18 16.11 197.72 129.27"/><path class="cls-2" d="M279.41,117.9c1.16-1,11.27-19.55,12.83-22.58,2-3.94,4-7.32,6.26-11.27,2-3.59,4.75-8.13,6.37-11.77-2.83-3.69-6-9.14-9-12.93l-5.05-6.06A14.43,14.43,0,0,0,289,51.22c-2.32-2.32-5.81-6.52-9.19-9.6-7.83-7.27-30.31-24.35-37.69-25.76l.1.25Z"/><path class="cls-4" d="M248.95,53.19a10,10,0,0,1,3.94,4.14c.86,1.67.71,3.69-.45,6l-26.72,37.94c-1.16,1.77-2.37,2.78-3.69,3s-3-.15-4.85-1.31A60.74,60.74,0,0,0,180.3,90.83a57.38,57.38,0,0,0-42.69,18.34,62.51,62.51,0,0,0-12.33,20,67,67,0,0,0-4.45,24.35,66.28,66.28,0,0,0,4.45,24.25,61.57,61.57,0,0,0,12.33,19.75,57.92,57.92,0,0,0,18.84,13.39,57.21,57.21,0,0,0,23.84,4.9,61.22,61.22,0,0,0,20-3.28,60.31,60.31,0,0,0,17.23-9,7.28,7.28,0,0,1,4.75-1.41c1.26.2,2.53,1.16,3.79,2.83l27,38.95c1.16,2.37,1.31,4.34.51,5.91a10.32,10.32,0,0,1-4,3.94,124.73,124.73,0,0,1-32,15.46,118.54,118.54,0,0,1-36.17,5.51,120.29,120.29,0,0,1-32.13-4.29,119.07,119.07,0,0,1-28.9-12.17,123.26,123.26,0,0,1-43.44-43.29,118.48,118.48,0,0,1-12.22-28.79A121.18,121.18,0,0,1,76.94,92.7,124.57,124.57,0,0,1,95.88,68a116.81,116.81,0,0,1,24.5-18.84A123.19,123.19,0,0,1,149.28,37a121.86,121.86,0,0,1,68,.91,123.75,123.75,0,0,1,31.67,15.26Z"/></g></g></svg>