<svg xmlns="http://www.w3.org/2000/svg" viewBox="0 0 18.77 24.01"><defs><style>.cls-1,.cls-2{fill:#5c5d5d;}.cls-1{fill-rule:evenodd;}</style></defs><title>alvara</title><g id="Camada_2" data-name="Camada 2"><g id="Camada_1-2" data-name="Camada 1"><path class="cls-1" d="M0,5.84V22.45a1.67,1.67,0,0,0,1,1.42,7.52,7.52,0,0,0,2.3.11H8.05a6,6,0,0,0,.2-.77H2c-.43,0-.62,0-.88-.2a1,1,0,0,1-.34-.71V6H4.62A1.43,1.43,0,0,0,6,4.68V.77H16.1c1,0,.85.79.85,1.81,0,.68,0,6.55,0,6.75a3.16,3.16,0,0,1,.23.45l0,.17c.06.09.34.06.48.06V1.36a1.25,1.25,0,0,0-.4-.94A1.31,1.31,0,0,0,16.41,0H5.9C5.19,0,4.73.62,4.17,1.19L.51,4.85a1.47,1.47,0,0,0-.51,1Z"/><path class="cls-1" d="M10.89,13.95a3.25,3.25,0,0,1,.26-1.25,3.35,3.35,0,0,1,.6-.91A3.09,3.09,0,0,1,16,11.71a3.15,3.15,0,0,1,.71,3.49,3.11,3.11,0,0,1-1.42,1.47,3.28,3.28,0,0,1-2.78,0,3.11,3.11,0,0,1-1.64-2.72Zm1.5-4c-.48,0-.4-.2-.71-.2-.6,0-.09.74-.6,1-.28.14-.91-.14-.91.28,0,.26.09.43.09.57,0,.71-.91.34-.91.85,0,.34.74.62.09,1.13-.2.17-.34.14-.34.48s.48.28.57.65-.91.94.17,1.19c.68.17.34.62.34,1.08s.71.09,1,.31,0,.94.45.94.26-.2.71-.2.37.54.71.71.51-.45.91-.45.74,1,1.16.09c.28-.68.85-.14,1-.14.57,0,.2-.65.51-.94s.6.06.88-.14c.45-.28-.2-.68.17-1.11s.77.06.77-.57c0-.28-.31-.17-.31-.77,0-.31.6-.4.6-.71s-.6-.28-.6-.85c0-.34.31-.34.31-.77s-.74-.14-.88-.65c-.06-.2.06-.34.11-.57.09-.77-.88,0-1.16-.65-.11-.28.09-.74-.34-.74-.26,0-.37.2-.65.2-.54,0-.45-.77-.82-.77s-.31.45-.85.45-.71-1-1.13-.06c-.06.14-.2.37-.37.37Z"/><path class="cls-1" d="M15.56,18.37c-.26.45-.31.77-.85.77-.31,0-.31-.09-.51-.14l1.56,5a10.9,10.9,0,0,0,1-1.47,3.37,3.37,0,0,1,.91.28l.91.31c-.06-.2-.14-.4-.2-.62C18.2,22,17,18.28,17,18.09c-.23.17-.28.88-1.39.28Z"/><path class="cls-1" d="M9.1,23.1l1.76-.88L11.76,24c.17-.11.17-.34.23-.54a5.29,5.29,0,0,0,.2-.62l1-3.06a2.65,2.65,0,0,0,.2-.62c-.48,0-.85,0-1-.77-.48.28-1.11.4-1.36-.23-.11-.28.06-.43-.14-.57l-1.3,4.14A10.87,10.87,0,0,0,9.1,23.1Z"/><path class="cls-1" d="M11.48,13.15l1.19,1.22-.28,1.7.37-.17a2.83,2.83,0,0,1,.4-.23,7.05,7.05,0,0,0,.79-.43l.34.2c.17.09.23.14.4.23l.77.4c0-.4-.26-1.22-.26-1.73,0,0,1.08-1,1.22-1.19-.26,0-.65-.09-.94-.14s-.71,0-.82-.23a11,11,0,0,0-.77-1.42c0,.14-.57,1.25-.65,1.42s0,.11-.34.17Z"/><path class="cls-1" d="M2.27,9.81h8.39a1.11,1.11,0,0,1,.2-.45c.14-.17.23-.17.37-.28h-9Z"/><rect class="cls-2" x="7.51" y="4.54" width="7.94" height="0.74"/><rect class="cls-2" x="7.51" y="6.8" width="7.94" height="0.74"/><path class="cls-1" d="M2.27,19.13h7.2c.17,0,.17-.17.23-.34a1.86,1.86,0,0,1,.11-.43H2.27Z"/><path class="cls-1" d="M2.27,16.61h7.2c-.09-.31-.31,0-.65-.57-.09-.09-.06-.17-.2-.17H2.27Z"/><path class="cls-1" d="M2.27,12.08H8.7a1.08,1.08,0,0,1,.48-.62c.14-.06.17,0,.28-.11H2.27Z"/><path class="cls-1" d="M2.27,14.34H8.45a.82.82,0,0,1-.09-.4c0-.17,0-.2,0-.34H2.27Z"/></g></g></svg>