<svg xmlns="http://www.w3.org/2000/svg" viewBox="0 0 23.99 16.4"><defs><style>.cls-1{fill:#5c5d5d;fill-rule:evenodd;}</style></defs><title>chat</title><g id="Camada_2" data-name="Camada 2"><g id="Camada_1-2" data-name="Camada 1"><path class="cls-1" d="M9.33,12.84a10.57,10.57,0,0,1-2.86-.31c-.79-.2-.57-.31-1.25.17a7.42,7.42,0,0,1-1.76.91,7.09,7.09,0,0,0,.43-1.47c0-.2,0-.43.06-.57a11.18,11.18,0,0,1-1.59-1.28,3.45,3.45,0,0,1-.43-.48,6.88,6.88,0,0,1-.4-.57A2.49,2.49,0,0,0,1.36,9,4.42,4.42,0,0,1,.85,6.6a4.94,4.94,0,0,1,1.3-3,3.22,3.22,0,0,1,.43-.45l.48-.4A10.58,10.58,0,0,1,14.6,2.41l.77.54c.4.34.4.43.68.68A5,5,0,0,1,17.32,6.8c0,2.49-1.84,4.11-3.69,5a10.34,10.34,0,0,1-4.31,1ZM0,6.6v.45a5.63,5.63,0,0,0,1.45,3.51A9.15,9.15,0,0,0,3,11.93a4,4,0,0,1-.17.88,4.13,4.13,0,0,1-1,1.64c-.06.06-.26.2-.26.31,0,.28.85,0,1.11-.06a7,7,0,0,0,2.47-1l.34-.2c.62-.4.2-.26,1.25-.06a11.47,11.47,0,0,0,7.94-1.25c.23-.14.43-.23.62-.37a7.56,7.56,0,0,0,1.93-2,5.29,5.29,0,0,0,0-6,6.73,6.73,0,0,0-1.42-1.56A2.06,2.06,0,0,0,15.56,2l-.31-.23A11.39,11.39,0,0,0,3,1.76,6.9,6.9,0,0,0,.48,4.65,4.85,4.85,0,0,0,0,6.6Z"/><path class="cls-1" d="M21.12,14.85c-.57-.4-.34-.37-.91-.2a7.06,7.06,0,0,1-4.2.09,5.07,5.07,0,0,1-1.45-.62,10,10,0,0,0,1.81-1,8.15,8.15,0,0,0,.77-.62l.37-.31c.06-.06.14-.11.17-.17a10.38,10.38,0,0,0,1.47-2c.06-.09.06-.17.11-.26a7.73,7.73,0,0,0,.54-1.62A4.38,4.38,0,0,1,23,10.69a2.27,2.27,0,0,1,0,1.3,2.94,2.94,0,0,1-.74,1.33,3.86,3.86,0,0,1-.34.34c-.48.45-.68.4-.88,1.19Zm-8.16-1a5.63,5.63,0,0,0,2,1.42,7.82,7.82,0,0,0,5,.37c.74-.17.37-.26,1.08.17a5.34,5.34,0,0,0,1.64.54c.09,0,.51.17.51,0S23,16.07,23,16l-.77-.74c-.54-.62.2-.68.77-1.36l.23-.28a1,1,0,0,0,.2-.28,1.91,1.91,0,0,0,.2-.31,3.31,3.31,0,0,0,.28-.74c.6-2.18-1-4-2.95-4.76A8.24,8.24,0,0,0,19.11,7a6.71,6.71,0,0,1-1.33,3.51,9.07,9.07,0,0,1-2.58,2.3,17.54,17.54,0,0,1-1.64.79,3.67,3.67,0,0,0-.6.2Z"/></g></g></svg>