<svg xmlns="http://www.w3.org/2000/svg" viewBox="0 0 17.57 24.01"><defs><style>.cls-1{fill:#5c5d5d;fill-rule:evenodd;}</style></defs><title>contrato-empresa</title><g id="Camada_2" data-name="Camada 2"><g id="Camada_1-2" data-name="Camada 1"><path class="cls-1" d="M12,13.86h2.69v2.69H12Zm-4.54,0h2.69v2.69H7.46Zm-4.76,0H5.58v2.69H2.69ZM12,9.33h2.69V12H12Zm-1.84,2V12H7.46V9.33h2.69Zm-7.46-2H5.58V12H2.69ZM12,5h2.69V7.65H12ZM7.46,5h2.69V7.65H7.46ZM2.89,5H5.58V7.65H2.89ZM.11,24H7.46V20.07h2.69V24h7.43V2c-1.13-.45-4.11-.11-5.58-.11V0H5.58V1.87H0Z"/></g></g></svg>