<svg xmlns="http://www.w3.org/2000/svg" viewBox="0 0 28.8 21.05"><defs><style>.cls-1{fill:#5c5d5d;fill-rule:evenodd;}</style></defs><title>contrato-parceria</title><g id="Camada_2" data-name="Camada 2"><g id="Camada_1-2" data-name="Camada 1"><path class="cls-1" d="M9.78,17.55c0-1,1.59-1.42,1.59,0,0,.71-1.59,1-1.59,0ZM7.43,16.3c0-2.1,2.66-1.47,1.53,0-.45.57-1.53.62-1.53,0ZM6.07,14.74c-1.11,0-1-1.81.23-1.81s1.16,1.81-.23,1.81ZM10.23,9l-.11-.09c-.09-.09-.06,0-.17-.17-.48-.71.28-1.13,1-1.9C14.17,3.66,14.91,2.92,19,3.88c2,.45,2,1.33,3.46,3.77,1.13,1.9,1.79,2.38.68,4.48a41.28,41.28,0,0,1-5-4.71c.14,0,1.13.4,1.13-.57S16.24,6,15.53,6s-2.18,1.16-2.69,1.47-.77.51-1.22.82A2.76,2.76,0,0,1,10.23,9ZM8.56,8.19a2.28,2.28,0,0,0,.51,1.39c1.45,1.59,3.06-.2,5.27-1.67,1.7-1.13,1.93-1,3.43.88.51.62,3.34,3.23,4.25,4.05.4.37.82.45.82,1a1,1,0,0,1-1,.79c-.85,0-1.53-1.13-2.24-1.13-.17,0-1.33.48.2,1.47a3.74,3.74,0,0,0,1.25.65c-.09,1.22-1.13.91-1.84.51-.43-.26-1.59-1.36-1.87-.4-.11.2-.14-.26-.06.31.06.31.51.68.74.82a5,5,0,0,1,1.25.79c-.17.6-.65.79-1.36.79s-1.56-1.13-2.13-1.13c-.06,0-1.42.4.23,1.47.51.34.79.37.88.77-.68.17-.74.51-1.76-.11L12.61,18a2.11,2.11,0,0,0-2.15-2.61,1.92,1.92,0,0,0-2-1.67,2.21,2.21,0,0,0-2.15-2c-.57,0-.48.11-1,.11-.91-1.7-.31-2.07.82-4L7.54,5.39C8.39,4,9.47,3.83,11.34,3.54c.48-.06,1.19-.06,1.7-.17a4,4,0,0,1-.62.48l-1.25,1c-.74.68-2.61,2.44-2.61,3.34ZM0,10.8c.68.14,2.66,1.62,3.37,1.79a2.15,2.15,0,0,1,.57-.91c.11.51.45.68.45,1a11.39,11.39,0,0,0-.34,1.13,2.1,2.1,0,0,0,2,2.13c.06,1.62,1.16,2,2.49,1.93.26.57.11.6.62,1a2.12,2.12,0,0,0,2.07.4A2,2,0,0,0,13,20.58c.68,0,.88-.37,1.53-.09.85.4,2,1,3.09,0,.68-.57.34-.65,1-.88A2.72,2.72,0,0,0,19.87,19a2,2,0,0,0,.6-1.3,1.59,1.59,0,0,0,1.22-.6c.71-.68.4-.91.71-1.22.11-.11,1.67-.6,1.67-2,0-.88-.37-.4.17-1.19a2.91,2.91,0,0,0,.51-1.08l.34.45c.14.23.2.37.34.57,1.16-.6,2.24-1.3,3.37-1.9L22.51,0c-.79.17-2.64,1.59-3.37,1.79a3,3,0,0,0,.45.91,27.27,27.27,0,0,0-3.94-.45c-.6,0-1,.34-1.33.28A4.24,4.24,0,0,0,13,2.13a19.75,19.75,0,0,0-3.8.57c.09-.43.23-.48.31-.91-.26-.14-.51-.26-.79-.43L7.11.4A2.13,2.13,0,0,0,6.18,0L2.3,6.69A34,34,0,0,0,0,10.8Z"/></g></g></svg>