<svg xmlns="http://www.w3.org/2000/svg" viewBox="0 0 23.98 22.87"><defs><style>.cls-1{fill:#5c5d5d;fill-rule:evenodd;}</style></defs><title>departamento-pessoal</title><g id="Camada_2" data-name="Camada 2"><g id="Camada_1-2" data-name="Camada 1"><path class="cls-1" d="M4.34,16.29v5.1a1.56,1.56,0,0,0,1.59,1.47H18.17a1.63,1.63,0,0,0,1.56-1.81V16.55c0-2.35-2.41-3.23-4.37-3.71a32.41,32.41,0,0,1-2.18,6.29c-.09.17-.14.26-.2.37l-.26.43c0-1.11-.4-4.14-.31-4.68s.48-.71.48-1.25a3.57,3.57,0,0,0-1.73,0c0,.48.51.94.51,1.25,0,1.64-.34,3.15-.34,4.76l-.45-.79c-.14-.31-.26-.6-.37-.85a27.44,27.44,0,0,1-1.33-3.6c-.09-.28-.17-.62-.28-1a7.79,7.79,0,0,0-.28-1c-1.73.43-4.28,1.39-4.28,3.46Z"/><path class="cls-1" d="M9.52,2.91c1.3,0,1.36.4,2.55.4s2.49-1,2.95,0c.17.34.06.51.11.94.11.91.31,1.53.31,2.15,0,1.73-1.67,4.45-3.37,4.45S8.84,8.47,8.62,6.54a2.42,2.42,0,0,1,.17-1.28c.11-.45-.06-2.35.74-2.35Zm-1.64,1c0,2.21-.09,3.8,1.11,5.56,3.12,4.68,7.11.48,7.11-3.49,0-1.62.26-3.12-.31-4.37C14.8-.55,9.95-.29,8.73,1a4.14,4.14,0,0,0-.85,2.92Z"/><path class="cls-1" d="M0,15.16v2.78A1,1,0,0,0,1,19H3.69c0-2.58-.34-3.86,1.42-5.33a3.61,3.61,0,0,1,.54-.37,5.33,5.33,0,0,1,1.16-.54c-.2-.28,0-.11-.37-.2a3.54,3.54,0,0,0-.6-.06,11.54,11.54,0,0,0-3.32.23C1.3,13.09,0,13.6,0,15.16Z"/><path class="cls-1" d="M17.18,12.78a4.19,4.19,0,0,1,1.59.79C20.52,14.9,20.3,15.9,20.3,18c0,1.25-.43,1,2.64,1,.54,0,1-.28,1-.82V14.82c0-1.87-3.32-2.27-4.76-2.35l-1.59.11c-.43.06-.26-.09-.45.2Z"/><path class="cls-1" d="M2.69,8.58,3,6.51a10.52,10.52,0,0,1,3.77,0A5.17,5.17,0,0,1,7,7.5c0,.48.17.68.17,1.08,0,1.22-1,2.95-2.21,2.95S2.69,9.77,2.69,8.58Zm-.48-1.5a7.45,7.45,0,0,0,.45,3.09c.94,1.9,2.75,2.58,4.17.62.82-1.16.79-2.24.79-3.71,0-1.84-.85-2.61-2.69-2.61s-2.72.82-2.72,2.61Z"/><path class="cls-1" d="M19.13,11.53c-1.28,0-2.21-1.79-2.21-2.95l.34-2.07c1-.09,2.92-.45,3.86.17,0,1.59.54,1.7,0,3.09-.28.71-1,1.76-2,1.76ZM16.44,7V8.16c0,2.75,2.55,5.36,4.48,2.78,1.08-1.45.85-2.58.85-4.42,0-2.55-3.57-2.3-4.65-1.5a2.55,2.55,0,0,0-.68,2Z"/></g></g></svg>