<svg xmlns="http://www.w3.org/2000/svg" viewBox="0 0 20.58 28.8"><defs><style>.cls-1{fill:#5c5d5d;fill-rule:evenodd;}</style></defs><title>honorarios</title><g id="Camada_2" data-name="Camada 2"><g id="Camada_1-2" data-name="Camada 1"><path class="cls-1" d="M0,22.82V24H11.08V22.64l1.36-.11c-.06-.2-.28-.34-.51-.74a3.91,3.91,0,0,1,1.45-5.22c1-.6.79.17.79-1.9h.57A6.36,6.36,0,0,0,12.08,12L9.52,16.66a7.45,7.45,0,0,0-.4-2.15c-.68.17-.62.68-1.39.2-.09,0-.11-.09-.2-.11-.45-.2-.4.31-.48.94a7.29,7.29,0,0,0-.14,1.13l-.34-.54C6.09,15.1,5,13.18,4.37,12a2.49,2.49,0,0,0-.6.34A6.82,6.82,0,0,0,2.3,13.74,8.35,8.35,0,0,0,1,16.18a19.81,19.81,0,0,0-1,6.63Z"/><path class="cls-1" d="M2.38,5.52A5.13,5.13,0,0,0,3,8.42a5.2,5.2,0,0,0,1.19,1.64,6,6,0,0,0,4,1.67,5.94,5.94,0,0,0,5.92-5.58A5.66,5.66,0,0,0,12.3,1.7,5.76,5.76,0,0,0,5.9.48a5.84,5.84,0,0,0-3.51,5Z"/><path class="cls-1" d="M15.34,16.89c0,.26-.4.2-1,.43-2.1.88-2.89,4.34.71,5.41,1.11.31,3.57.62,3.57,1.59v.26c0,1.5-4.11,1.93-4.51-.57-.06-.34.09-.54-.34-.48a4.22,4.22,0,0,1-.79.09c-.26,0-.62.09-.82.09a3.58,3.58,0,0,0,2.89,3.74c.37.11.26,0,.26,1.36h2.49V27.46a3.38,3.38,0,0,0,2.41-1.7A2.92,2.92,0,0,0,20,22.62c-1.84-2-5.47-1.16-5.47-2.81,0-1.25,3.34-1.59,3.8.06.23.88-.14.77.62.74l1.39-.11a3.27,3.27,0,0,0-2-3.2c-.6-.2-.48.11-.48-1.45H15.34Z"/><path class="cls-1" d="M7.14,12.78c0,1.11-.11,1,.45,1.33s.54.4,1.19,0,.51-.11.51-1.22c0-.6-.71-.43-1.76-.43-.17,0-.4.11-.4.31Z"/></g></g></svg>