<svg xmlns="http://www.w3.org/2000/svg" viewBox="0 0 25.88 19.21"><defs><style>.cls-1{fill:#5c5d5d;fill-rule:evenodd;}</style></defs><title>impostos</title><g id="Camada_2" data-name="Camada 2"><g id="Camada_1-2" data-name="Camada 1"><path class="cls-1" d="M2.81,19.21H16.9l.74-.28c2.47-1,2.21-3.71,2.21-5.67V4.39h5.73c.54-.82.31-1.45-.2-2.47A3.85,3.85,0,0,0,23.64.36C22.25-.2,19.34.08,17.41.08H10.89C9.58.08,8,0,7,1.16a.63.63,0,0,0,.48,1.08c.6,0,.71-.79,2-.82h9.78a4.13,4.13,0,0,0-.79,3.06c0,2.07.14,11-.11,11.76a2.37,2.37,0,0,1-4.54-.06c-.17-.6.06-1.16-.68-1.28H7.32c0-1.59.43-4.25-1.33-3.06v3.06H.29L0,15.25a3.47,3.47,0,0,0,.71,2.58,3.88,3.88,0,0,0,1.9,1.28c.26.11.09,0,.2.11Z"/><path class="cls-1" d="M1.51,4l5,5L9.07,6.46l-5-5c-.51.14-1,.82-1.33,1.16A7.69,7.69,0,0,0,1.51,4Z"/><path class="cls-1" d="M7.12,9.69l2.24,1c.4.2.74.31,1.11.51,1.84.94.74-.91.14-2.07-.34-.68-.6-1.36-.94-2A10.39,10.39,0,0,0,7.12,9.69Z"/><path class="cls-1" d="M.88,3.34,3.46.82C3,.48,2.81.17,2,0A1.8,1.8,0,0,0,.88,3.34Z"/><path class="cls-1" d="M12.31,4.28c-.09.37-.17.91.4.91a25.22,25.22,0,0,0,4.2-.09l.26-.26s0,0,.06-.06c-.09-.28-.17-.62-.51-.62a31.4,31.4,0,0,0-4.39.11Z"/><path class="cls-1" d="M12.31,8.56c0,.11-.4.94.62.94a22.45,22.45,0,0,0,4-.11l.31-.31c-.09-.28-.17-.6-.51-.6a31.64,31.64,0,0,0-4.39.09Z"/><path class="cls-1" d="M12.19,6.83a.6.6,0,0,0,.51.51,25,25,0,0,0,4.2-.11.59.59,0,0,0,.17-.11l.14-.17c-.09-.31-.17-.62-.51-.62h-4a.6.6,0,0,0-.51.51Z"/></g></g></svg>