<svg xmlns="http://www.w3.org/2000/svg" viewBox="0 0 23.53 22.96"><defs><style>.cls-1{fill:#5c5d5d;fill-rule:evenodd;}</style></defs><title>impostos-renda</title><g id="Camada_2" data-name="Camada 2"><g id="Camada_1-2" data-name="Camada 1"><path class="cls-1" d="M11.51,2.13c.06,0,.11.06.14.06s0,0,.06,0,.06.06.14.11,0,0,.09.06l0,0a1.32,1.32,0,0,1,.17.14c.06,0,0,0,.09.06s.06.06.11.09l.06.06s.09.06.09.11,0,0,0,0,0,0,0,0h0c0,.06.09.09.11.11s.09.11-.06.11,0,0-.09-.06A.15.15,0,0,1,12.39,3h0V3c-.06,0-.11,0,0,.09l0,0c.06,0,0,0,.06.09h0l.06,0v0a.2.2,0,0,1,.09.17l0,.06.06.11s0,.06,0,.09a.09.09,0,0,1-.11,0s0-.06-.11,0h0a1.13,1.13,0,0,0,0,.31s0,0,.06.06v.06h0l.09.23,0,.06c0,.06,0,0,0,.09l.09.11c0,.06,0,0,0,.06a.93.93,0,0,0,.09.17s0,0,0,0,0,0,0,.06,0,0,0,.06L13,5c0,.06-.11.06-.2,0A.4.4,0,0,0,12.7,5l0,0V5c0,.06,0,0,.06.06l.06.11c0,.06,0,0,0,.06s0,.06,0,.09,0,0,0,.14v.06s.06.06.06.09,0,.11.06.17V6a.05.05,0,0,1-.09,0c-.09,0-.09-.06-.14-.09s0,0-.06,0l-.17,0c0,.17.09,0,.06.31h0a1,1,0,0,1,0,.28s0,0,0,.11,0,.06-.06.09-.09-.06-.14-.14l-.11-.17a.15.15,0,0,0-.11-.06c0,.14,0,0,.06.14a1.23,1.23,0,0,1,0,.14s0,.17-.06.26,0,.09,0,.14-.09.14-.09.17a.21.21,0,0,1,0,.11l0,.09s-.06.06-.09.09a.21.21,0,0,0,0,.14l-.06.09h0c-.06.09,0,.09-.06.17s0,0-.09.06,0,.09-.06.14,0,0-.09.09-.09,0-.09-.11,0-.06,0-.11,0,0,0-.06,0,0,0-.06,0,0-.09-.17a.1.1,0,0,1,0-.09H11.2c-.09.11,0,.17-.11.2s0,.09,0,.11L11,7.82s0,0,0,0a.18.18,0,0,1-.09.14.3.3,0,0,1-.11.09c-.11.11,0,.06-.09.11s0,0,0,0-.06.06-.09.06,0,0,0,0,0,0,0,0,0,0,0,0,0,0,0,0h0c0,.06,0,.06-.06.06s0,0,0,0,0,.06-.06.06h0c0,.06,0,0,0,.06l0,0s0,.06-.09.06a.15.15,0,0,1-.06.11l-.09.09c-.06-.06,0-.09-.06-.17V8.48s-.06-.06,0-.11,0,0,0,0,0,0,0,0l-.06,0v0s0,0,0,.11,0,.09,0,.2,0,.09-.06.09,0,0,0,.06,0,0-.09.11h0v0c-.14.14-.06.26-.23.2v-.2c0-.06,0,0-.06-.06l-.06,0h0l0,0s0,0,0,.09,0,.14,0,.17,0,0-.06,0a0,0,0,0,0,0,0V9a.17.17,0,0,1,0-.11c-.06,0,0,0-.06-.06h0L9,8.79s0,0,0,0H9s0,0,0,0H9c-.06-.06-.06-.06-.06-.11s-.06,0-.06-.14V8.25c-.06,0-.17.11-.17.14v.23c0,.09,0,0-.06.06s0,.06,0,.11-.06-.06-.2-.14,0,0-.06-.11l-.23-.23c-.06-.06-.09-.06-.17-.14s0,0-.06-.09,0,0-.06,0L7.8,8c-.09-.11,0-.09-.09-.14s-.06,0-.06-.09-.06,0-.06-.11,0-.2-.06-.26-.14.2-.2.28,0,.14,0,.23-.06.14-.09.14,0,0-.06-.09l-.09-.09c0-.06,0,0-.06-.11H7c-.14-.17-.09-.14-.17-.28s0-.06,0-.11,0,0-.06-.06v0s0,0,0-.06a.21.21,0,0,1-.06-.17c0-.09-.06-.06-.06-.11V6.86c0-.09-.06,0-.06-.2s0-.06-.06-.09V6.26c-.11,0-.06,0-.17.14s0,.06-.09.11l0,.06c-.17,0-.11-.26-.11-.4s0-.14,0-.23,0,0,0-.06,0,0,0-.11a1.23,1.23,0,0,0-.34.14c-.06,0-.06.09-.09,0s0-.2,0-.34,0-.09.06-.14a.59.59,0,0,0,.06-.17L6,5.16s0,0,0,0V5c-.09,0-.09,0-.14.06a.23.23,0,0,1-.2,0S5.73,5,5.73,5l.06-.06c0-.06,0,0,0-.09l0-.06h0l0,0c.09-.09,0-.06.14-.23l.06-.14c0-.09,0,0,.06-.14L6.21,4s0,0,.06,0a1.37,1.37,0,0,0,0-.34s-.11,0-.17,0,0,0-.06,0,0-.09,0-.11,0,0,0-.09,0-.06.06-.09l0-.09a1.73,1.73,0,0,1,.11-.17l.09-.09s0,0,0-.06-.09,0-.11,0,0,0-.09,0S6,3.2,6,3c0,0,.06,0,.09-.06l.45-.4s0-.06.09-.09.06-.09.17-.09,0-.06.06-.09l.2-.11c.06,0,.11-.11.2-.11S7.37,2,7.46,2h.06c0-.09,0,0-.06-.09l-.09-.06v0l0,0c0-.06,0-.06,0-.09h0c.06,0,.06,0,.09,0h.43a1.5,1.5,0,0,1,.34.09h0c.09.06.09,0,.14.09s.17,0,.17,0-.06-.17-.09-.23,0-.17.09-.11,0,0,.06,0,.09,0,.14.06.17.11.26.14.06.09.17.11a.21.21,0,0,0,0-.11V1.64c0-.06.06,0,.06,0s.11.11.14.14a.41.41,0,0,1,.06-.09c0-.06.14-.09.14,0s0,.23.06.14l.09-.09.09-.06s.06,0,.09-.06.09,0,.2-.09a.22.22,0,0,1,.23,0s0,.09-.09.14-.06.09-.06.2,0-.06.23-.06c0-.06,0-.06.09-.06s.06,0,.11-.06h.17a.17.17,0,0,1,.11,0,.58.58,0,0,1,.31,0c.09,0,.09,0,.14,0s.09,0,.11.06l-.11.09s0,.06-.09.09-.06,0-.06.09.2,0,.26,0l.06,0ZM1,0H17.74s.06,0,.14.06a1.79,1.79,0,0,1,.65.57,2.41,2.41,0,0,1,.14.94V9.18l-.62,0h-.2a5,5,0,0,0-.65,0H17A6,6,0,0,0,14.4,10c-.2.11-.37.26-.54.37a1.28,1.28,0,0,1-.54.31c-.91,0-1.81-.06-2.72-.06-1.76,0-3.71,0-5.47,0a20.29,20.29,0,0,0-2.66.11l.06.57a31.65,31.65,0,0,0,5,.11,47.94,47.94,0,0,1,5,.06c0,.06,0,.09,0,.11s-.09.09-.11.11a.5.5,0,0,0-.11.14,1,1,0,0,0-.2.28l-.09.14-.26.45a12.19,12.19,0,0,1-2.3.14c-1.62,0-3.17,0-4.79,0h-.6c-.57,0-1.5-.2-1.62.43,0,.09,0,.11.09.17a.42.42,0,0,0,.43.2l3.63,0c.62,0,4.17-.06,4.73.06v.17A2.69,2.69,0,0,0,11.23,15a.36.36,0,0,0-.17.11,1,1,0,0,1-.28,0,3.8,3.8,0,0,1-.57,0l-5.7,0-1.13,0c-.31,0-.77,0-.88.28s.23.51.54.57a7.29,7.29,0,0,0,1.11,0c.37,0,.77,0,1.13,0l3.43,0H9.84c.37,0,.77,0,1.13,0a2.69,2.69,0,0,1,.17.51.21.21,0,0,0,.06.11s0,0,0,0,0,.26,0,.37,0,.11,0,.17v.2l-1.16,0c-2,.06-4,0-6,0-.28,0-1-.06-1.16,0a.45.45,0,0,0-.43.2,1,1,0,0,0-.06.51A29.54,29.54,0,0,0,7,18.06c.79,0,1.56,0,2.32,0,.4,0,.79,0,1.16,0a3.13,3.13,0,0,1,1,.14,2.47,2.47,0,0,1,.26.48l.34.65s.06.11.09.14a4.57,4.57,0,0,1-.62,0l-1.81,0c-1.11,0-7-.06-7.31.14v.57c.34.23,7.17.11,8.45.11l1.39,0a1.31,1.31,0,0,1,.6.11,3,3,0,0,1,.31.23l.11.06a1.78,1.78,0,0,0,.31.34,8.57,8.57,0,0,0,1.22.71l.6.26a4.21,4.21,0,0,0,.85.26,3.84,3.84,0,0,0,.57.06,8,8,0,0,0,.82,0c.09,0,.14,0,.23,0a3.1,3.1,0,0,1,.57,0,.67.67,0,0,1-.17.26l-.23.17a.59.59,0,0,1-.17.11c-.11.06-.14.09-.2.09H.94c-.11,0-.43-.26-.51-.31s0-.06-.06-.06l-.14-.14c0-.06-.2-.28-.23-.34V.85C0,.79.06.77.11.65L.2.57s0,0,.06-.06A1.73,1.73,0,0,1,.68.14C.79.06.85,0,1,0Z"/><path class="cls-1" d="M17.63,10.86a4.85,4.85,0,0,1,2.13.45l.2.11a3,3,0,0,1,.57.34,2.29,2.29,0,0,1,.4.34,4.71,4.71,0,0,1,.4.37c0,.06.09.09.14.14l.48.71c.06.11.14.26.2.4a1.9,1.9,0,0,1,.17.43A4.74,4.74,0,0,1,22.45,17a6.34,6.34,0,0,1-.31.88,3.63,3.63,0,0,1-.31.57l-.2.28-.09.09a4.82,4.82,0,0,1-2.3,1.59c-.14.06-.31.09-.48.14a5.31,5.31,0,0,1-1.64.09l-.26-.06a1.66,1.66,0,0,1-.51-.11,3.86,3.86,0,0,1-1.42-.68,4.46,4.46,0,0,1-.43-.34l-.09-.06s0-.06-.06-.09,0,0-.06,0v0l-.09-.06h0s0,0,0,0A5.1,5.1,0,0,1,13,16.87a3.2,3.2,0,0,1-.09-.51,3.49,3.49,0,0,1-.06-.57l0-.6a4.78,4.78,0,0,1,.48-1.64,6.4,6.4,0,0,1,.45-.74l.14-.17.14-.14a.22.22,0,0,1,.06-.09l.09-.09a4.93,4.93,0,0,1,3.4-1.47Zm5.9,4.79v.26a5.39,5.39,0,0,1-.11,1A7.88,7.88,0,0,1,23.07,18a6.17,6.17,0,0,1-.79,1.3l-.14.17L21.6,20l-.17.14a6.08,6.08,0,0,1-2.21,1.13c-.06,0-.09,0-.14,0a5.8,5.8,0,0,1-3-.09l-.26-.09c-.06,0-.09,0-.14,0L15.39,21a3.19,3.19,0,0,1-.79-.45.86.86,0,0,1-.2-.14l-.71-.6-.23-.23c-.17-.2-.48-.6-.62-.79a5.61,5.61,0,0,1-.94-3v-.23a5.43,5.43,0,0,1,.34-1.81.7.7,0,0,1,.11-.26,5.84,5.84,0,0,1,.34-.74s0,0,0-.06l.57-.77a4,4,0,0,0,.34-.37,5.33,5.33,0,0,1,1-.77l.23-.14.48-.23a6,6,0,0,1,1.08-.37l.77-.14a5.92,5.92,0,0,1,1.59.09,6.18,6.18,0,0,1,1.59.54c.06,0,.09,0,.11.06l.57.34a6.38,6.38,0,0,1,1.19,1.13A5.6,5.6,0,0,1,23,13.32,6,6,0,0,1,23.47,15a5.08,5.08,0,0,1,.06.68Z"/><path class="cls-1" d="M16.81,15.79a.59.59,0,0,0-.11-.17L16.19,15a2,2,0,0,0-.45-.43s-.11.09-.14.11l-.31.28-.09.06a4,4,0,0,0-.34.37l-.26.26a1.91,1.91,0,0,0-.2.31l.17.14a6.23,6.23,0,0,1,.77.74c0,.06.09.09.14.14s.77.82.88.91,0,.06.06.06a2.09,2.09,0,0,0,.45.34s.17-.14.23-.17l.34-.31c0-.06.09-.09.11-.14s.4-.34.54-.48l.17-.17c.11-.09.17-.17.28-.26s0,0,0,0,.17-.2.31-.31.51-.51.65-.65l.79-.79.06-.06.17-.23a2.45,2.45,0,0,0,.37-.4c0-.06.09-.11.11-.17a.86.86,0,0,0-.23-.23,8.39,8.39,0,0,0-.65-.71.83.83,0,0,0-.34.2.39.39,0,0,0-.11.09l-1.42,1.19s-.06,0-.11.09l-.94.74Z"/><path class="cls-1" d="M8.62,5.47c-.14,0-.11-.06-.2-.09s0,0,0,0,0,0,0,0,0,0,0,0h0s0,0-.06,0-.23-.2,0-.26L8.42,5c.06,0,0,0,.06,0h.2a.91.91,0,0,1,.09.14h0a.81.81,0,0,1,0,.37.11.11,0,0,1-.17,0ZM10.4,5.3l0,0s0,0,0,0h-.06s0,0,0,0,0,0-.06.06,0,0-.09,0-.09.06-.23,0a.75.75,0,0,1,0-.43h0L10,5c.06,0,0,0,.06,0h.09s.11,0,.17,0l.14.06c.11.06.06.14,0,.2Zm-2-1.53-.06.06c-.06,0-.06,0-.09,0s0,0-.06,0,0,0-.06,0A.62.62,0,0,1,8,4c0,.06,0,0-.06.06l-.2.2-.09.09c-.06.09,0,.11,0,.14a.1.1,0,0,0,0,.09s0,0,0,.06,0,.06,0,.09,0,.11,0,.14,0,0,0,.09.06.17,0,.26,0,.11,0,.2,0,0,0,.14A2.11,2.11,0,0,0,7.8,6h0l0,0a.1.1,0,0,0,0,.09c0,.06,0,0,0,.06v.06c.06,0,0,0,.06.06H8v0c.09.11.09.11.23.14s.09.09.09.09,0,.09,0,.09v0h0c0,.06,0,0,0,.09s0,0,0,.09a.21.21,0,0,0,0,.14c.09.06.17.14.26.14l.11,0c.14,0,.09,0,.11,0l.06-.06H9s0,0,0,0,0,0,.2-.17l0,0s0,0,0-.09,0-.06,0-.14,0-.06,0-.09a.1.1,0,0,0-.09-.06L9,6.38H9v0L8.9,6.26c0-.06.06-.14.09-.17h.14c.06,0,.06,0,.09.06s.17,0,.26,0,0,0,.11,0,.11,0,.14,0v.06s0,0,.06.06a1.42,1.42,0,0,1-.23.2s0,.06-.06.09-.06.06-.09.09a.55.55,0,0,0,.09.28l0,0h0c.09,0,0,0,.09.06a.39.39,0,0,0,.31.11.17.17,0,0,0,.11,0c.11,0,.06,0,.11,0s.06,0,.17-.14,0-.2.06-.37,0,0,.09-.09l.11-.06.09,0c.06,0,0-.06.09-.06h0v0l0,0c0-.06,0-.06,0-.09s0-.06.06-.09,0,0,0-.09,0-.06,0-.09a.31.31,0,0,0,0-.23c0-.11,0,0,0-.2,0,0,0-.2,0-.2a.46.46,0,0,1,0-.2s0-.06,0-.09V4.88a1.23,1.23,0,0,1,0-.14l0,0h0c0-.06,0,0,0-.06l.06-.14h0s0,0,0,0,0,0,0-.06,0-.06,0-.06l0,0h0a0,0,0,0,0,0,0h0s0,0,0,0l-.2-.2c-.06,0-.06-.06-.09-.09l-.09-.06c-.06-.06-.09,0-.11-.06s0,0,0-.06-.06,0-.09,0-.09,0-.14-.06-.14,0-.2,0H9.95c-.06,0,0,0-.09,0h0l0,0c0,.06,0,0-.09.06s0,.06-.11,0,0,.06-.09.06,0,0-.06.06,0,0-.09.06h0c-.09.09-.06,0-.06,0s0,0,0,0,0,0,0,0h0c-.06,0,0,0,0,0S9.24,4,9.24,4s0,0,0,0h0c-.06,0-.09,0-.09-.06S9,3.8,8.9,3.77s-.06,0-.11,0-.06,0-.14-.06-.06,0-.14.06,0,0-.11,0Z"/><path class="cls-1" d="M7.2,3h0s0,0,0,0,0,0-.06,0,0,.06,0,.09L7,3.29h0a.21.21,0,0,1,0,.11h0v.09c0,.06,0,0,0,.06v.09s0,.06,0,.09v.17l.06.26c0,.06,0,0,.06.09s0,0,0,0H7l.14.14c.06,0,.06,0,.09,0s0,0,.09,0V4.39l.06-.06c0-.06,0,0,0-.06a.31.31,0,0,1,0-.17s-.09.06-.11.06,0-.06,0-.11,0-.06,0-.09,0,0,.06-.09a1.23,1.23,0,0,0-.14,0c.06-.11,0,0,.06-.14s0,0,.09-.09,0,0,.06-.09-.09,0-.11,0,0-.06,0-.09,0,0,.06,0,0,0,0,0,0,0,0,0h0s0,0,.06,0,0,0,0,0,0,0,0,0,0,0,0,0h.09a.22.22,0,0,0,.06-.09s0,0,0,0,0,0,0-.06,0,0,0-.06,0,0,0-.06,0,0,0-.06l-.09-.09s0,0,0,0H7.29S7.26,3,7.2,3Z"/><path class="cls-1" d="M11.28,3s0,0,0,.06l-.06.06v.06h0s0,0,0,0,0,0,0,0,0,.06,0,.09.09,0,.2.14h.06s0,0,0,0h0l.09.06c.06.06,0,.11-.06.09h0c0,.06,0,.06-.06.06l.06.06h0l.09.11s0,0,0,.06.06,0,0,.06,0,0-.14,0h0l.06.09c.06,0,0,0,0,.06s0,.11-.09.11a.26.26,0,0,1,0,.14l-.06.09.06.09c.09,0,0,0,.09,0s0,0,.06,0,.09-.09.11-.11l.06-.06c0-.06,0-.06,0-.09s0-.09,0-.14h0V3.57h0s0,0,0,0,0,0,0-.06l0,0V3.37l0,0v0s0,0,0,0h0l0,0v0s0,0,0-.06-.06,0-.09-.11-.06,0-.09-.06,0,0-.06-.06-.11,0-.17,0Z"/><path class="cls-1" d="M8.39,3.77a1,1,0,0,0-.26.11A.62.62,0,0,0,8,4L8,4a0,0,0,0,0,0,0l-.17.14a.39.39,0,0,0-.09.11l0,0-.06.06c0,.06,0,0,0,.11l.09.11v.09c.09.14,0,0,.06.17s.06-.09.06.43c0,.11,0,.11-.06.17V6s0,0,0,.06.06.09.06.14l.09.06v0c.11.17.06.09.2.17s.09,0,.11.06v0c0,.09,0,.06,0,.11s0,0,0,.14A.45.45,0,0,0,8.42,7s0,0,0,0h0l.06,0c.06.06.26.06.34.06l.11,0v0s0,0,0,0L9,7c.11-.06.28-.2.28-.31s0,0,0-.06V6.55s0-.06-.09-.09a1.84,1.84,0,0,1-.26-.23A.15.15,0,0,1,9,6.12H9c.14,0,.14,0,.23,0h0a1.4,1.4,0,0,0,.4,0h.06l.06.11c-.09.06,0,.06-.2.2l-.09,0a.22.22,0,0,1-.06.09.31.31,0,0,0,0,.23c0,.06,0,0,0,.06s0,.06,0,.09h.06v0a0,0,0,0,1,0,0c0,.06.06,0,.09.06a.41.41,0,0,0,.4.06.17.17,0,0,0,.11,0s0,0,.09,0h0c.17-.17.09-.09.14-.23s0,0,0-.06a.7.7,0,0,1,0-.26s0,0,0,0l0,0c.09-.06.11-.06.14-.06s0,0,0,0,.06,0,.09,0l0-.06s0,0,0,0l0,0s0,0,0,0l.06-.06c.06-.14,0,0,.11-.26s-.14-.82,0-1a.48.48,0,0,0,0-.2l0,0,0,0v0c0-.06.06,0,.06-.11v0c.09,0,0,0,0-.09s0,0-.06-.09L11,4.25c-.06-.14,0,0-.11-.14l-.09-.06c-.09-.09,0-.06-.11-.09s-.11-.14-.2-.14h0l0,0s-.11-.09-.17-.06v0l-.09,0c-.06,0-.11,0-.2,0s0,0-.09.06,0,0-.06,0-.17.06-.17.09l-.06,0c-.09.06,0,0-.11.06s-.09.09-.11.11,0,0,0,0,0,0,0,0,0,.06,0,0,0,0,0,0,0,.06.06,0h0c.06,0,.06,0,.09-.06s0,0,.06-.06.06,0,.09-.06.06,0,.11,0,.06,0,.09-.06l0,0h0c.06,0,0,0,.09,0H10c.06,0,.14,0,.2,0s.06,0,.14.06,0,0,.09,0,0,0,0,.06.06,0,.11.06l.09.06s0,.06.09.09l.2.2s0,0,0,0h0a0,0,0,0,1,0,0h0l0,0s0,.06,0,.06,0,0,0,.06,0,0,0,0h0L11,4.65s0,0,0,.06h0l0,0a1.23,1.23,0,0,0,0,.14V5s0,.06,0,.09a.46.46,0,0,0,0,.2s0,.17,0,.2c0,.2,0,.09,0,.2a.31.31,0,0,1,0,.23s0,0,0,.09,0,.06,0,.09,0,.06-.06.09,0,0,0,.09l0,0v0h0c-.06,0,0,0-.09.06l-.09,0-.11.06c-.09.06-.06,0-.09.09s0,.28-.06.37S10.2,7,10.15,7s0,0-.11,0a.17.17,0,0,1-.11,0A.39.39,0,0,1,9.61,7c-.09-.06,0-.06-.09-.06h0l0,0a.55.55,0,0,1-.09-.28s0-.06.09-.09,0-.06.06-.09a1.42,1.42,0,0,0,.23-.2c0-.06,0,0-.06-.06V6.12c0-.06-.06,0-.14,0s-.06,0-.11,0-.17,0-.26,0,0-.06-.09-.06H9s-.11.11-.09.17L9,6.35v0H9l.11.11a.1.1,0,0,1,.09.06s0,.06,0,.09.06,0,0,.14,0,.06,0,.09l0,0C9,7.06,9,7,9,7.06s0,0,0,0H8.9l-.06.06s0,0-.11,0l-.11,0c-.09,0-.17-.09-.26-.14a.21.21,0,0,1,0-.14c0-.06,0,0,0-.09s0,0,0-.09h0v0c.06,0,.06,0,0-.09s-.06-.09-.09-.09-.14,0-.23-.14v0h0c0-.06,0,0-.06-.06V6.12c0-.09,0,0,0-.06a.1.1,0,0,1,0-.09l0,0h0a2.11,2.11,0,0,1,0-.43c0-.11,0-.06,0-.14s0-.11,0-.2,0-.14,0-.26,0-.06,0-.09,0-.09,0-.14,0-.06,0-.09,0,0,0-.06a.1.1,0,0,1,0-.09s-.09-.06,0-.14l.09-.09.2-.2C8,4,8,4.05,8,4a.62.62,0,0,0,.14-.09s0,0,.06,0,0,0,.06,0,0,0,.09,0l.06-.06c.09,0,0,0,.11,0s0-.06.14-.06,0,0,.14.06,0,0,.11,0,.14.11.23.11,0,.06.09.06h0c0,.06,0,0,0,0s0,.06.06.06,0,0,0,0h0s0,0-.06-.06v0s0,0,0,0h0c-.06-.06-.06-.06-.09-.06a1.47,1.47,0,0,0-.37-.17c-.23-.09-.11-.06-.31,0s-.06.06-.06.06Z"/><path class="cls-1" d="M9.18,7.14c-.06,0,0,0,0,0h0A.42.42,0,0,0,9,7.31c.09.09,0,.11.11.11s0,0,0,0l.17,0a.55.55,0,0,1,.23,0,.38.38,0,0,1,.14-.09s0,0,0,0,0,0,0,0,0,0,0,0V7.29s0,.06,0,0H9.61c-.06-.06,0,0-.06-.06l-.09-.06c-.06,0,0,0-.06-.06H9.35s0,0,0,0l-.06.06s0,0-.09,0Z"/><path class="cls-1" d="M11.14,3.17h0s0,0,0,0v0c0-.06,0,0,0,0s0,0,0-.09l0,0h0c0-.14.2-.06.26,0l.06.06c.06,0,0,0,.06.06s0,0,0,.06.06.06.06.11,0,0,0,0,.06,0,0,.06h0a.17.17,0,0,1,0,.11s0,0,0,0,0,0,0,.06h0l0,.23V4h0c-.06,0,0,0,0,0h0l0,.06c0,.11-.06.09-.06.14h0l0,0s0,0,0,0h0v0a.43.43,0,0,1-.17.11.17.17,0,0,1-.11,0c-.11-.23,0-.06,0-.23V4.14c.09-.06.06,0,.14,0s-.11-.2-.14-.28.06,0,.14,0V3.8s0,0-.06-.06a0,0,0,0,0,0,0v0l-.06-.06c0-.06,0-.06.06-.06s0,0,0,0l0,0c.06,0,0,0,0,0s-.11,0-.11-.09,0,0,0,0h-.06c-.09,0,0,0-.11-.06s-.09,0-.11,0a.3.3,0,0,1,.06-.17Zm.34.37c-.06,0-.09,0-.11,0s0,.09,0,.11h0s.09.06.09.09v0c-.06,0-.11,0-.11.06s0,0,.06.06a.22.22,0,0,0,.06.09v.06c-.14,0-.09,0-.11.26-.06,0-.06,0-.06.11s0,0,.06,0a.09.09,0,0,0,0,.06.21.21,0,0,0,.11,0l.09,0c.06,0,0,0,.06-.06s.06,0,.06-.09,0,0,0,0,0,0,0,0,.06,0,.06-.09a.17.17,0,0,0,0-.11h0s0,0,0,0h0a.94.94,0,0,0,0-.4V3.51s0,0,0-.06,0-.11-.06-.17V3.2c-.06,0,0,0-.06-.09s0,0-.06-.09,0,0-.14-.09,0-.06-.06-.06-.09-.09-.2,0,0,.06-.09.09,0,.06-.06.17,0,0-.06.09,0,0,0,.06v.06c.14,0,.14,0,.2,0s.09,0,.11,0,0,.06.06.06.06,0,.09.06Z"/><path class="cls-1" d="M7.46,3.34v0s0,0-.06,0H7.31s0,0,0,0,0,0,0,0h0c0,.06,0,0-.06,0s0,.06.14.09l0,.06-.09.09s-.06.11-.06.14.06,0,.11,0,0,.06,0,.14L7.2,4v.06c0,.09.06,0,.11,0v0c0,.09,0,.09,0,.11s0,0,.06.14l-.09,0s0,0,0,0l0,0s0,0,0,0A.5.5,0,0,1,7,4.34a.39.39,0,0,1-.09-.11.21.21,0,0,1-.06-.11c-.06-.14-.09-.6,0-.71s0-.06,0-.11,0,0,.09-.14,0,0,0-.06L7.11,3h0l0,0s0,0,0,0l0,0s0,0,0-.06h.06s-.06,0,0,0,0,0,.06,0,0,0,.06,0,0,0,0,.09.09.11.11.17v.06h0s0,0,0,.06,0,0,0,0-.09,0-.11,0Zm-.51-.09c0,.06,0,0-.06.06s-.06,0-.06.45,0,.23.06.45a1.22,1.22,0,0,0,.2.2s.09.09.14.09.09,0,.09-.09l.06,0c0-.26-.09-.14-.06-.23s0,0,.06-.09a.13.13,0,0,0-.14,0c0-.09,0,0,0-.06s0-.06,0-.09.06,0,0-.14H7.23s.06-.09.09-.11a.39.39,0,0,0,.09-.11s-.06,0-.11,0V3.49l.06-.06h.11s0,0,.06-.06.11,0,.11,0,0-.09-.06-.11,0-.09-.09-.2,0,0-.06-.09,0-.06-.09-.09-.09,0-.11,0l-.2.2H7s0,0,0,.06,0,0,0,.11Z"/><path class="cls-1" d="M7.2,3l0,0s0,0,0,0l0,0h0l-.06.09s0,0,0,.06-.09.09-.09.14-.06,0,0,.11-.09.57,0,.71a.21.21,0,0,0,.06.11A.39.39,0,0,0,7,4.34a.5.5,0,0,0,.23.14s0,0,0,0l0,0s0,0,0,0l.09,0c0-.14,0-.09-.06-.14s0,0,0-.11v0c-.06,0-.09.09-.11,0V4L7.26,4c0-.09.09-.14,0-.14s-.09,0-.11,0,.06-.11.06-.14l.09-.09,0-.06c-.11,0-.11,0-.14-.09s0,0,.06,0h0c.06,0,0,0,0,0s0,0,0,0h0s0,0,0,0,0,0,0,0,0,0-.06,0,0,.09,0,.09.06,0,.11,0,0,0-.06.09,0,0-.09.09,0,0-.06.14a1.23,1.23,0,0,1,.14,0c0,.06,0,0-.06.09s0,0,0,.09-.06,0,0,.11.09-.06.11-.06a.31.31,0,0,0,0,.17s0,0,0,.06l-.06.06v.06c-.09,0,0,0-.09,0s0,0-.09,0L7,4.25H7s0,0,0,0,0,0-.06-.09l-.06-.26V3.71s0-.06,0-.09V3.54s0,0,0-.06V3.4h0a.21.21,0,0,0,0-.11H7l.11-.2s0,0,0-.09,0,0,.06,0,0,0,0,0h0c.06,0,.06,0,.09-.06h.09s0,0,0,0L7.46,3c0,.06,0,0,0,.06s0,0,0,.06,0,0,0,.06,0,.06,0,.06,0,0,0,0a.22.22,0,0,1-.06.09H7.46s0,0,0,0,0,0,0,0,0,0,0,0,0,0-.06,0H7.4s0,0,.06,0v0s.09,0,.11,0,0,0,0,0,0,0,0-.06h0V3.2c0-.06-.06-.14-.11-.17s0-.06,0-.09,0,0-.06,0,0,0-.06,0,0,0,0,0H7.23s0,0,0,.06Z"/><path class="cls-1" d="M11.45,3.69v0a0,0,0,0,1,0,0s.06,0,.06.06v.06c-.09,0,0-.06-.14,0s.14.17.14.28-.06,0-.14,0v.11c0,.17-.11,0,0,.23a.17.17,0,0,0,.11,0,.43.43,0,0,0,.17-.11v0h0s0,0,0,0l0,0h0c0-.06,0,0,.06-.14l0-.06h0c0-.06,0,0,0,0h0V3.8l0-.23V4h0c-.06.06,0,.09,0,.14s0,0,0,.09l-.06.06s-.06.09-.11.11,0,0-.06,0,0,0-.09,0l-.06-.09.06-.09a.26.26,0,0,0,0-.14c.09,0,.11,0,.09-.11s0,0,0-.06l-.06-.09h0c.14,0,.09.09.14,0s0,0,0-.06,0,0,0-.06l-.09-.11Z"/><path class="cls-1" d="M12,7.29l0-.09a.21.21,0,0,0,0-.11s.09-.11.09-.17,0-.09,0-.14,0-.23.06-.26a1.23,1.23,0,0,0,0-.14c0-.11,0,0-.06-.14a.15.15,0,0,1,.11.06l.11.17c.06.09.09.14.14.14s.06,0,.06-.09,0-.09,0-.11a1,1,0,0,0,0-.28h-.06c0,.09,0,.4,0,.45s-.06-.06-.09-.09l-.2-.26s0,0,0,0-.06,0-.06.06,0,.06,0,.09a1.16,1.16,0,0,1,0,.31A2,2,0,0,1,12,7h0S12,7,12,7v.14s0,0,0,.09Z"/><path class="cls-1" d="M9.18,7.14l0,0s0,0,0,0L9.33,7c.09,0,.11.09.17.11s.06,0,.09.06,0,0,0,0h0l0,0s0,0,0,0,0,0,0,0,0,0,0,0,0,0,0,0,0,0,0,0,0,0,0,0v0h0l0,0a.48.48,0,0,1-.14.06.85.85,0,0,1-.37,0c-.06,0,0,0,0,0s0,0,0,0,0,0-.11-.11a.42.42,0,0,1,.17-.14h0s0,0,0,0Zm-.06,0c-.09,0-.11,0-.2.11s0,0,0,.09,0,.06.06.09,0,0,.14,0h0a1.38,1.38,0,0,0,.34,0,.94.94,0,0,0,.17-.09c.09-.06,0,0,.06-.06s0,0,0-.09,0-.06-.09-.06a.39.39,0,0,1-.11-.09s0,0-.09,0,0,0-.06-.09-.17.06-.23.09-.06,0-.06,0,0,0,0,0Z"/><path class="cls-1" d="M11.28,3h0l0,0c0,.06,0,0,0,.09s0,0,0,0v0s0,0,0,0h0a.3.3,0,0,0-.06.17s.06,0,.11,0,0,.06.11.06h.06s0,0,0,0,.09.06.11.09,0,0,0,0l0,0s0,0,0,0-.06,0-.06.06,0,0,.06-.06h0c.09,0,.11,0,.06-.09l-.09-.06h0s0,0,0,0h-.06c-.11-.11-.28,0-.2-.14s0,0,0-.09,0,0,0,0,0,0,0,0h0V3.09L11.25,3s0,0,0-.06.06-.09.17,0,0,0,.06.06,0,.06.09.06,0,.09.09.11,0,0,0,.06v0l0,0h0c0,.06,0,0,0,0v0l0,0v.09l0,0s0,0,0,.06,0,0,0,0,0,0,0-.06,0,0,0,0a.17.17,0,0,0,0-.11h0c0-.06,0-.06,0-.06s0,0,0,0,0-.06-.06-.11,0,0,0-.06,0-.06-.06-.06L11.54,3c-.06-.09-.26-.17-.26,0Z"/><path class="cls-1" d="M11,7.82l.06-.06s0-.09,0-.11,0-.09.11-.2h.06a.1.1,0,0,0,0,.09c.11.14.06,0,.09.17s0,0,0,.06,0,0,0,.06,0,.06,0,.11,0,.11.09.11,0,0,.09-.09.06-.06.06-.14,0,0,.09-.06,0-.09.06-.17h0l.06-.09,0,0h0l0,0s0,0,0,0v0h0c0,.06,0,.11-.09.17v0c-.09.09,0,.06-.11.14s0,.09-.11.09,0-.28-.06-.4,0,0-.06-.06,0-.06-.06-.09,0-.09-.11-.09,0,0,0,.06v.06c0,.17,0,.09-.06.14s0,.06,0,.11h0v0Z"/><path class="cls-1" d="M12.59,6.12c0-.31-.06-.14-.06-.31l.17,0s0,0,.06,0,.06.06.14.09A.05.05,0,0,0,13,6V5.81c-.09-.06,0,0-.06-.17s0-.06-.06-.09l.06.28s0,0,0,.06v0c0,.06-.14,0-.17-.06s0,0-.06,0-.2-.11-.26,0,.09.09.09.2a.17.17,0,0,0,0,.11Z"/><path class="cls-1" d="M9.18,7.14c.06,0,.06,0,.09,0l.06-.06s0,0,0,0h.06s0,0,.06.06l.09.06c.06,0,0,0,.06.06h.09c0,.09,0,0,0,0v.06s0-.06,0,0,0,0,0,0,0,0,0,0a.38.38,0,0,0-.14.09.55.55,0,0,0-.23,0l-.17,0s0,0,0,0,0,0,0,0,0,0,0,0a.85.85,0,0,0,.37,0,.48.48,0,0,0,.14-.06l0,0h0v0s0,0,0,0,0,0,0,0,0,0,0,0,0,0,0,0,0,0,0,0,0,0,0,0l0,0h0s0,0,0,0-.06-.06-.09-.06S9.41,7.06,9.33,7l-.09.06s0,0,0,0Z"/><path class="cls-1" d="M12.39,3h0a.15.15,0,0,0,.11.06c.09,0,.06,0,.09.06s.14-.06.06-.11-.09-.06-.11-.11h0c0,.06.23.2.14.2h0c-.06,0,0,0-.09,0S12.47,3,12.39,3Z"/></g></g></svg>