<svg xmlns="http://www.w3.org/2000/svg" viewBox="0 0 23.98 24"><defs><style>.cls-1{fill:#5c5d5d;fill-rule:evenodd;}</style></defs><title>informacoes</title><g id="Camada_2" data-name="Camada 2"><g id="Camada_1-2" data-name="Camada 1"><path class="cls-1" d="M9.27,11.71l-.68-.34a7.13,7.13,0,0,1,2.49-2.69c1.47-.91,3.06-1,2.64,1.39-.31,1.87-2.72,6.6-2.47,8,1.28.31,2-1.42,2.69-2.1.34.14.37.11.6.34-1.19,2.86-5.56,5.1-5.5,2,.06-2,2.69-7,2.21-8.28-.77-.34-1.76,1.11-2,1.67ZM15,5.22a1.36,1.36,0,1,1-2.47-1.16A1.36,1.36,0,0,1,15,5.22Zm9,8.08V11c-.34-.94-.09-2.1-1.3-4.45A11.88,11.88,0,0,0,11.65,0,12,12,0,1,0,16.3,23.19,13.55,13.55,0,0,0,19.93,21a12.43,12.43,0,0,0,3.46-5.27c.26-.74.31-1.79.6-2.44Z"/></g></g></svg>