<svg xmlns="http://www.w3.org/2000/svg" viewBox="0 0 18.2 23.98"><defs><style>.cls-1{fill:#5c5d5d;fill-rule:evenodd;}</style></defs><title>nota-fiscal</title><g id="Camada_2" data-name="Camada 2"><g id="Camada_1-2" data-name="Camada 1"><polygon class="cls-1" points="6.26 6.07 0.62 6.07 6.26 0.42 6.26 6.07"/><path class="cls-1" d="M2.58,17.49H15.79v2.92H2.58Zm13.24-3-6.63,0H2.55v-3l3.34,0h9.95c0,1,0,1.93,0,2.92ZM12.93,9.35l0,.77a5,5,0,0,1-.65,0V9.38a1.92,1.92,0,0,1-1.62-1,2.7,2.7,0,0,1-.2-.68l1.13-.14a1.36,1.36,0,0,0,.68.91V6.72a4.88,4.88,0,0,1-.6-.2,1.61,1.61,0,0,1-.51-.34A1.66,1.66,0,0,1,10.6,5a1.56,1.56,0,0,1,.45-1.22,2,2,0,0,1,1.19-.51V2.95h.65v.37A2.11,2.11,0,0,1,14,3.74a1.58,1.58,0,0,1,.54,1l-1.08.11c-.06-.06,0-.17-.2-.4-.06-.06-.23-.23-.34-.23V5.78c.91.28,1.81.51,1.81,1.76a1.57,1.57,0,0,1-.17.74,1.72,1.72,0,0,1-.91.88,2,2,0,0,1-.71.2ZM0,24H18.2V0H7.14c0,2.32,0,4.59,0,6.92L0,6.89Z"/><path class="cls-1" d="M12.9,8.48a1,1,0,0,0,.51-.26.76.76,0,0,0,0-1.08,1.21,1.21,0,0,0-.51-.23Z"/><path class="cls-1" d="M12.25,5.58V4.2a.7.7,0,0,0-.54.68.74.74,0,0,0,.54.71Z"/><path class="cls-1" d="M12.25,10.12a5,5,0,0,0,.65,0l0-.77h0a6.87,6.87,0,0,0,0,.77Z"/></g></g></svg>