<svg xmlns="http://www.w3.org/2000/svg" viewBox="0 0 23.98 20.75"><defs><style>.cls-1{fill:#5c5d5d;fill-rule:evenodd;}</style></defs><title>noticias</title><g id="Camada_2" data-name="Camada 2"><g id="Camada_1-2" data-name="Camada 1"><path class="cls-1" d="M1,17.91V2.44c0-.82.14-1.11,1-1.11H20.27a2.44,2.44,0,0,1,.68.11,32.56,32.56,0,0,1,.11,4.42V18.28l.17,1H2.72a2.15,2.15,0,0,1-1.11-.4,1,1,0,0,1-.57-1ZM22.51,19.3c-.28,0-.34-.77-.34-1.08V2.83c.2,0,.65-.06.65.26V17.32c0,.34,0,2-.31,2ZM0,2.72v15a2.65,2.65,0,0,0,1.7,2.72,4,4,0,0,0,1.22.28H22.51c1.62,0,1.47-2.49,1.47-3.91V3.26a2.17,2.17,0,0,0-.45-1.36,1.74,1.74,0,0,0-1.36-.45C22.08,1.22,21.94,0,20.64,0H1.81C.34,0,0,1.45,0,2.72Z"/><path class="cls-1" d="M2.3,4.42a22.18,22.18,0,0,0,.17,4.39,1.11,1.11,0,0,0,1,.74H8.53c.85,0,1.16-.85,1.16-1.73V3.88c0-.77-.28-1.7-1.16-1.7h-5C2.41,2.18,2.3,3.26,2.3,4.42Z"/><path class="cls-1" d="M2.18,11.88c0,.37.23.77.6.77H19.25c.77,0,.77-1.5,0-1.5H2.78a.67.67,0,0,0-.6.74Z"/><path class="cls-1" d="M11.74,3c0,.34.23.77.57.77h7.26c.77,0,.77-1.5,0-1.5H12.3c-.34,0-.57.4-.57.74Z"/><path class="cls-1" d="M11.74,9c0,.34.23.74.57.74h7.26c.77,0,.77-1.5,0-1.5H12.3c-.34,0-.57.43-.57.77Z"/><path class="cls-1" d="M11.4,17.69c0,.4.06.91.6.91h7.2c.79,0,.71-1.47.11-1.47H11.93a.61.61,0,0,0-.54.57Z"/><path class="cls-1" d="M11.4,14.77c0,.34.09.79.54.79h7.31a.41.41,0,0,0,.37-.2c.31-.45.2-1.3-.54-1.3h-7a.67.67,0,0,0-.71.71Z"/><path class="cls-1" d="M11.74,6c0,.31.17.74.51.74h7.37c.68,0,.71-1.45,0-1.45H12.25a.38.38,0,0,0-.37.23,2,2,0,0,0-.14.48Z"/><path class="cls-1" d="M2.24,17.66c0,.37.06.85.54.85H9.21c.74,0,.74-1.5-.06-1.5H2.81a.67.67,0,0,0-.57.65Z"/><path class="cls-1" d="M2.24,14.71c0,.45.2.79.68.79H9.07c1,0,.82-1.47.14-1.47H2.78c-.37,0-.54.34-.54.68Z"/></g></g></svg>