<svg xmlns="http://www.w3.org/2000/svg" viewBox="0 0 18.99 24.01"><defs><style>.cls-1{fill:#5c5d5d;fill-rule:evenodd;}</style></defs><title>solicitacoes</title><g id="Camada_2" data-name="Camada 2"><g id="Camada_1-2" data-name="Camada 1"><path class="cls-1" d="M4,1H14.4V3.86c0,.31.17.65.48.65H18V20.07H4Zm11.51.57,1.9,1.87h-1.9ZM3,1.13V20a1.26,1.26,0,0,0,1.11,1.11H17.86A1.22,1.22,0,0,0,19,20v-16c0-.68-1.67-2.15-2.27-2.61S15.68,0,15.05,0H4.11A1.22,1.22,0,0,0,3,1.13Z"/><path class="cls-1" d="M0,4.31V22.88a1.23,1.23,0,0,0,.37.77,1.1,1.1,0,0,0,.77.37h15c.17,0,.51-.28.62-.4,1-1.19-.71-1.93-.74-.65H1V4c.43,0,.74-.14.74-.57,0-.91-1.79-.54-1.79.85Z"/><path class="cls-1" d="M6.46,10.52c.17.31.26.54.74.54h7.68a.56.56,0,1,0,0-1.11H7.2c-.48,0-.57.23-.74.57Z"/><path class="cls-1" d="M6.46,16.5c.17.31.26.57.74.57h7.48c1.22,0,1-1.13.2-1.13H7.2c-.48,0-.57.26-.74.57Z"/><path class="cls-1" d="M6.46,13.49c.17.31.26.57.74.57h7.48c1.22,0,1-1.11.2-1.11H7.2c-.48,0-.57.23-.74.54Z"/><path class="cls-1" d="M6.46,7.51c.17.31.26.57.74.57h4.51c1.22,0,1-1.13.17-1.13H7.2c-.48,0-.57.26-.74.57Z"/></g></g></svg>