<svg xmlns="http://www.w3.org/2000/svg" viewBox="0 0 23.99 23.97"><defs><style>.cls-1,.cls-2{fill:#5c5d5d;}.cls-1{fill-rule:evenodd;}</style></defs><title>termos-uso</title><g id="Camada_2" data-name="Camada 2"><g id="Camada_1-2" data-name="Camada 1"><path class="cls-1" d="M3.35,4.78l.06-.06.17-.11,0-.06.06-.06,0-.09c0-.09,0-.06.06-.06l.06-.06c0-.09-.06-.06,0-.06s0-.06.06-.06,0-.06.06-.06,0-.06,0-.06S3.95,4,4,4,4,4,4.12,4s-.06-.09,0-.06l.06-.06c0-.09,0-.09.06-.06s0-.06.06-.06l.09,0c0-.09,0-.09.06-.06s0-.06.06-.06.06-.06.09-.14,0-.09.09-.06l.06,0,.06-.06.06-.06c.54-.37,1-.71,1.62-1.08a11.18,11.18,0,0,1,12.47.94,8.77,8.77,0,0,1,1.39,1.3,11.17,11.17,0,0,1,2.1,3.34,11.38,11.38,0,0,1-.26,9,12,12,0,0,1-3.74,4.42,10.19,10.19,0,0,1-1.73,1,11.37,11.37,0,0,1-4.39,1A11.16,11.16,0,0,1,4.4,20.26a7.7,7.7,0,0,1-.68-.68A11.21,11.21,0,0,1,2.25,6.4c.43-.74.91-1.3,1.11-1.62ZM24,12.83a11.93,11.93,0,0,0-2.35-8.05,13.2,13.2,0,0,0-2.24-2.3A12.15,12.15,0,0,0,5.68,1.78c-.31.2-.57.37-.88.6A11.46,11.46,0,0,0,2.53,4.64,9.8,9.8,0,0,0,1.34,6.42,12.67,12.67,0,0,0,0,11.1a11.86,11.86,0,0,0,2.38,8.08,8.26,8.26,0,0,0,.65.82c.28.26.51.51.77.77a6.16,6.16,0,0,0,.82.68,11.91,11.91,0,0,0,6.46,2.49,12.08,12.08,0,0,0,10-4.2l.34-.43a14.22,14.22,0,0,0,1.16-1.81A12.15,12.15,0,0,0,24,12.83Z"/><path class="cls-1" d="M9.59,12.77c.51,0,.45-.2.74-.43H5.59l0,4.79h4.79l0-2.55a3.23,3.23,0,0,0-.31.31A4.78,4.78,0,0,0,10,16.71H6V12.77Z"/><path class="cls-1" d="M8.17,15.07c-.48-.28-.94-1.25-1.36-.74s.34.88.82,1.39.65.4,1.33-.28c.43-.4.79-.79,1.19-1.19s.79-.77,1.19-1.16c.23-.23.28-.62-.09-.74s-.57.23-.71.37c-.34.34-2.13,2.18-2.38,2.35Z"/><rect class="cls-2" x="5.59" y="8.83" width="13.97" height="0.31"/><rect class="cls-2" x="5.59" y="6.71" width="13.97" height="0.31"/><polygon class="cls-1" points="5.59 10.22 17.44 10.22 17.44 9.91 5.62 9.91 5.59 10.22"/><polygon class="cls-1" points="5.59 8.1 17.44 8.1 17.44 7.76 5.62 7.76 5.59 8.1"/><rect class="cls-2" x="12" y="14.16" width="6.49" height="0.31"/><polygon class="cls-1" points="12 15.55 16.36 15.55 16.36 15.24 12 15.21 12 15.55"/><path class="cls-1" d="M4.74,3.39l-.06,0c-.11,0-.09-.06-.09.06s-.06.09-.09.14-.09,0-.06.06-.09,0-.06.06l-.09,0c-.06,0-.06,0-.06.06s-.06,0-.06.06l-.06.06c-.09,0-.06,0,0,.06S4,3.93,4,4,4,4,4,4.07s-.06,0,0,.06-.06,0-.06.06-.06,0-.06.06-.06,0,0,.06l-.06.06c-.09,0-.06,0-.06.06l0,.09-.06.06,0,.06-.17.11-.06.06c.09,0,.09,0,.06-.06l.17-.11,0-.06c.09,0,.09,0,.06-.06l0-.09c.09,0,.06,0,.06-.06l.06-.06,0-.06.06-.06c.09,0,.06,0,.06-.06s.06,0,0-.06S4.06,4.1,4,4s.09,0,.09,0,.06,0,0-.06.09,0,.06-.06l.06-.06c.09,0,.06,0,.06-.06s.09.06.09,0,.06,0,.06-.06.06,0,.06-.06l.09-.14c.09,0,.09,0,.09-.06s.06.06.06,0,.09,0,.06-.06.06,0,.06-.06l-.06.06Z"/></g></g></svg>