<svg xmlns="http://www.w3.org/2000/svg" viewBox="0 0 38.4 30.5"><defs><style>.cls-1{fill:#4ab9b0;fill-rule:evenodd;}</style></defs><title>admissoes</title><g id="Camada_2" data-name="Camada 2"><g id="Camada_1-2" data-name="Camada 1"><path class="cls-1" d="M3,8.76c-.06-.45-.14-.31.34-.31H35.06c.51,0,.43-.14.37.31l.43.68c0,2.64.37,16.72-.28,17.94.14.54.2.4-.37.23-.94.43-31.07.43-32,0-.54.17-.48.31-.37-.23-.65-1.22-.26-15.31-.34-18ZM14.73,3c.14-.06,8.79-.65,9.64.45C26.78,6.6,18.11,5.67,16.8,5.7c-4.76,0-3-2.3-2.07-2.66ZM2.35.39C-.26,1.42,0,3.4,0,6.55V23.67c0,3-.4,5.58,2.13,6.49,1,.37,32.46.51,33.9.06,2.55-.77,2.32-3,2.32-6V7.06c0-3,.4-5.47-2-6.58C35-.12,3.88-.17,2.35.39Z"/><path class="cls-1" d="M5.55,23.38c.51,2.32,5.73,1.56,8.14,1.56,1.7,0,3-.17,3.32-1.62a6.06,6.06,0,0,0-.62-4c-1.93-3.17-3.6,1.16-6.94-.68-3.71-2-4.22,3.2-3.88,4.71Z"/><path class="cls-1" d="M31.35,25c1.36,0,2.18-.71,1.47-2.27-.57-1.19-6.24-.54-7.82-.54-3.23,0-6.89-.74-5.75,2.3.31.77,10.29.54,12.1.51Z"/><path class="cls-1" d="M24.71,16.67c-1.39,0-7.37-.74-5.36,2.35.48.77,6.63.4,8,.4,5,0,6.15.71,5.41-2.47-1.25-.57-6.18-.28-8.05-.28Z"/><path class="cls-1" d="M20.77,13.92H31.32c1.3,0,1.59.06,1.59-1.33s-.11-1.42-1.59-1.42H20.77c-1.33,0-1.67,0-1.64,1.42s.43,1.33,1.64,1.33Z"/><path class="cls-1" d="M10,11.48c-4.34,1.87-1.5,8,2.72,6.26,3.77-1.53,1.62-8.14-2.72-6.26Z"/><path class="cls-1" d="M2.8,27.38c-.11.54-.17.4.37.23,1,.43,31.1.43,32,0,.57.17.51.31.37-.23.65-1.22.28-15.31.28-17.94l-.43-.68c.06-.45.14-.31-.37-.31,0,.43-.09.28.37.31.4,1.81.14,7.17.14,9.38,0,3.06,0,6.18,0,9.24l-.37.23h-32l-.37-.23c.06-3.15,0-6.35,0-9.52,0-2.15-.23-7.31.17-9.1.45,0,.34.11.34-.31-.48,0-.4-.14-.34.31l-.51.65c.09,2.66-.31,16.75.34,18Z"/></g></g></svg>