<svg xmlns="http://www.w3.org/2000/svg" viewBox="0 0 30.05 38.41"><defs><style>.cls-1,.cls-2{fill:#4ab9b0;}.cls-1{fill-rule:evenodd;}</style></defs><title>alvara_1</title><g id="Camada_2" data-name="Camada 2"><g id="Camada_1-2" data-name="Camada 1"><path class="cls-1" d="M0,9.35V35.94a2.61,2.61,0,0,0,1.56,2.24c.88.37,2.52.17,3.69.17H12.9a7.66,7.66,0,0,0,.31-1.22H3.15c-.68,0-1,.06-1.39-.28a1.56,1.56,0,0,1-.54-1.16V9.58H7.43a2.31,2.31,0,0,0,2.18-2.1V1.22H25.8c1.67,0,1.36,1.3,1.36,2.89,0,1.11-.09,10.49.06,10.83a6.14,6.14,0,0,1,.31.74l.09.23c.09.17.51.14.77.14V2.18A1.93,1.93,0,0,0,27.75.71,2.15,2.15,0,0,0,26.28,0H9.44C8.31,0,7.6,1,6.69,1.93L.82,7.77A2.34,2.34,0,0,0,0,9.35Z"/><path class="cls-1" d="M17.4,22.31a5.25,5.25,0,0,1,.43-2,5.6,5.6,0,0,1,1-1.45,4.9,4.9,0,1,1,5.7,7.8,5.08,5.08,0,0,1-4.39,0,4.92,4.92,0,0,1-2.69-4.34Zm2.41-6.43c-.74,0-.62-.31-1.11-.31-1,0-.14,1.16-.94,1.56-.48.23-1.5-.26-1.5.45a8.1,8.1,0,0,0,.17.88c0,1.13-1.45.57-1.45,1.36,0,.57,1.16,1,.14,1.84-.34.26-.54.2-.54.74s.74.48.91,1c.23.82-1.5,1.5.23,1.93,1.11.26.54,1,.54,1.7s1.13.14,1.62.51.06,1.5.74,1.5c.51,0,.4-.31,1.13-.31s.57.88,1.11,1.13.82-.74,1.47-.74,1.16,1.7,1.84.14c.45-1.11,1.36-.23,1.7-.23.91,0,.31-1,.82-1.5s1,.09,1.39-.2c.71-.48-.31-1.11.26-1.79s1.22.06,1.22-.94c0-.43-.48-.26-.48-1.22,0-.48,1-.6,1-1.13s-1-.43-1-1.36c0-.54.48-.54.48-1.22s-1.13-.23-1.36-1c-.11-.34.09-.54.14-.94.17-1.22-1.39,0-1.81-1-.23-.48.11-1.19-.57-1.19-.43,0-.6.31-1,.31-.85,0-.74-1.22-1.3-1.22-.74,0-.48.74-1.36.74s-1.16-1.62-1.81-.11c-.09.26-.31.6-.62.6Z"/><path class="cls-1" d="M24.92,29.42c-.4.71-.51,1.19-1.39,1.19-.48,0-.48-.14-.79-.23l2.49,8A14.27,14.27,0,0,0,26.76,36a5.54,5.54,0,0,1,1.47.45l1.42.51a6.52,6.52,0,0,0-.28-1c-.26-.85-2.18-6.72-2.21-7.09-.4.31-.48,1.42-2.24.51Z"/><path class="cls-1" d="M14.6,37l2.81-1.42,1.45,2.78c.26-.17.28-.51.37-.85s.2-.62.31-1l1.56-4.9a8,8,0,0,0,.28-1c-.79.06-1.36,0-1.62-1.19C19,29.82,18,30,17.57,29c-.17-.43.09-.65-.26-.88l-2.07,6.6A16.46,16.46,0,0,0,14.6,37Z"/><path class="cls-1" d="M18.37,21l1.93,2-.48,2.72a1.77,1.77,0,0,0,.62-.28l.62-.34a13.47,13.47,0,0,0,1.28-.68l.57.34c.23.11.34.2.6.34s1,.57,1.25.62c0-.62-.4-1.93-.4-2.75,0-.06,1.7-1.62,1.93-1.93-.4,0-1-.14-1.5-.2s-1.11-.06-1.33-.37a15.35,15.35,0,0,0-1.19-2.27,20.15,20.15,0,0,1-1.08,2.24c-.09.17,0,.2-.54.28Z"/><path class="cls-1" d="M3.63,15.7H17.09A1.71,1.71,0,0,1,17.4,15c.2-.28.37-.28.57-.45H3.63Z"/><rect class="cls-2" x="12.02" y="7.26" width="12.73" height="1.22"/><rect class="cls-2" x="12.02" y="10.89" width="12.73" height="1.19"/><path class="cls-1" d="M3.63,30.61H15.17c.26,0,.26-.26.34-.54s.14-.51.23-.65H3.63Z"/><path class="cls-1" d="M3.63,26.59H15.17c-.14-.51-.51-.06-1-.88-.11-.2-.09-.34-.34-.34H3.63Z"/><path class="cls-1" d="M3.63,19.33H13.95a1.42,1.42,0,0,1,.79-1,1.43,1.43,0,0,0,.43-.2H3.63Z"/><path class="cls-1" d="M3.63,23h9.92a1.37,1.37,0,0,1-.17-.65,3.06,3.06,0,0,1,.09-.54H3.63Z"/></g></g></svg>