<svg xmlns="http://www.w3.org/2000/svg" viewBox="0 0 43.21 29.52"><defs><style>.cls-1{fill:#4ab9b0;fill-rule:evenodd;}</style></defs><title>chat_1</title><g id="Camada_2" data-name="Camada 2"><g id="Camada_1-2" data-name="Camada 1"><path class="cls-1" d="M16.78,23.07a19.46,19.46,0,0,1-5.16-.54c-1.39-.37-1-.54-2.21.31a14.15,14.15,0,0,1-3.17,1.64A10.91,10.91,0,0,0,7,21.83c.06-.34.09-.74.14-1a16.61,16.61,0,0,1-2.86-2.24c-.28-.31-.54-.57-.79-.91s-.48-.65-.71-1c-.09-.17-.2-.34-.28-.51a8.09,8.09,0,0,1-.94-4.2A8.85,8.85,0,0,1,3.88,6.46a7,7,0,0,1,.79-.79l.85-.74c5.53-4.31,15-4.51,20.78-.6l1.36,1a9.32,9.32,0,0,1,1.19,1.19,8.82,8.82,0,0,1,2.35,5.73c0,4.51-3.34,7.37-6.66,9a18.08,18.08,0,0,1-7.77,1.79ZM0,11.91v.82A10.21,10.21,0,0,0,2.61,19a15.86,15.86,0,0,0,2.86,2.49A6.61,6.61,0,0,1,5.16,23a8,8,0,0,1-1.81,3c-.11.11-.45.37-.45.54,0,.51,1.5,0,2-.09a12.66,12.66,0,0,0,4.39-1.76c.23-.14.43-.28.62-.4,1.16-.68.37-.48,2.3-.11A20.78,20.78,0,0,0,26.48,22c.4-.26.71-.43,1.08-.71a13.93,13.93,0,0,0,3.51-3.54A9.61,9.61,0,0,0,31,6.89a12,12,0,0,0-2.55-2.81c-.17-.14-.28-.26-.48-.4a6.54,6.54,0,0,0-.54-.4A20.43,20.43,0,0,0,5.41,3.17,12.43,12.43,0,0,0,.88,8.33,8.73,8.73,0,0,0,0,11.91Z"/><path class="cls-1" d="M38,26.73c-1-.71-.65-.68-1.64-.34a12.76,12.76,0,0,1-7.57.14,7.76,7.76,0,0,1-2.55-1.16,16.24,16.24,0,0,0,3.2-1.84c.51-.37.94-.71,1.42-1.11l.65-.6a1.62,1.62,0,0,0,.31-.31,16.66,16.66,0,0,0,2.64-3.66c.09-.17.11-.28.2-.45a14.77,14.77,0,0,0,1-2.92c2.49.6,5,2.24,5.78,4.73a4.25,4.25,0,0,1,.09,2.38A5.1,5.1,0,0,1,40.22,24c-.2.23-.4.43-.6.62-.91.82-1.25.71-1.59,2.13ZM23.33,24.92a10.75,10.75,0,0,0,3.57,2.55,14.12,14.12,0,0,0,9,.65c1.3-.34.65-.45,1.93.31a9.44,9.44,0,0,0,2.95.94c.17.06.94.34.94,0,0-.2-.26-.4-.4-.51L39.94,27.5c-.94-1.11.37-1.22,1.39-2.44l.43-.51c.11-.17.23-.31.37-.51a4.06,4.06,0,0,0,.34-.6,6,6,0,0,0,.54-1.3c1-3.94-1.87-7.17-5.33-8.59a13.11,13.11,0,0,0-3.29-.88A12.21,12.21,0,0,1,32,19a15.78,15.78,0,0,1-4.65,4.11,18.79,18.79,0,0,1-2.95,1.42c-.34.14-.79.26-1.08.4Z"/></g></g></svg>