<svg xmlns="http://www.w3.org/2000/svg" viewBox="0 0 38.38 29.99"><defs><style>.cls-1{fill:#4ab9b0;fill-rule:evenodd;}</style></defs><title>cnpj_1</title><g id="Camada_2" data-name="Camada 2"><g id="Camada_1-2" data-name="Camada 1"><path class="cls-1" d="M23.16,24.21h-.85V22.28a7.75,7.75,0,0,0,1.5.43c0,.79.17,1.5-.65,1.5ZM20.41,30H15.34c-1.22,0-1.81-.2-2.89-.23l-10.32,0c-.91,0-2.13-.14-2.13-1.3V2.15C0,.62.6,0,2.13,0h17.8c2.92,0,2.15,2.15,2.58,2.58,1.28.6,6.66.45,6.66,1.93a13.92,13.92,0,0,1-.4,3.23,16.18,16.18,0,0,0-.26,3c.79-.54.77-.94,1.76-1.28,1.73-.57,4.48.11,4.48,3.63,0,3.88-1.73,3-1.73,5.78a16.19,16.19,0,0,1,4.14,1.87c1.13,1,1.22,2.64,1.22,4.68v.09c-.79.2-.77.37-1.45.71-2.66,1.3-8.39,1.3-10.77.14,0,4.93-2.47,2.1-4.28,3-.54.26-.4.43-1.13.6l-.34.06ZM19,24c-2.1.51-11.85.23-14.77.23-1.67,0-2-1.93.43-1.93H17.8a1.58,1.58,0,0,1,1.5.85ZM22.31,19c.62.17,1.3.28,1.93.45,0,1.47.14,1.47-1.3,1.47-.91,0-.62-1-.62-1.93ZM19,20.32c-2.1.51-11.85.23-14.77.23-2,0-1.53-1.93.2-1.93H17.8a1.55,1.55,0,0,1,1.5.88Zm8.19-.62a38.47,38.47,0,0,1,.85-6,.17.17,0,0,1,.06.14c.17,1.7,1.64,3.74,1.64,4.34,0,.88-1.67,1.45-2.55,1.5Zm-4.93-3.86c.91,0,2.35.14,2.35,1.08v.85H22.31Zm-3.23.85c-2.13.51-11.88.23-14.8.23-1.76,0-1.76-1.93,0-1.93,2.92,0,12.67-.28,14.8.2a1.74,1.74,0,0,1,0,1.5Zm6-2.78v.65c-2.86,0-2.78.23-2.78-1.93a11.36,11.36,0,0,1,1.87.26c1.56.28.91.14.91,1Zm-9.33-2.3-.34-.28.2-.43.48-.2c1.08-.48.14-3.54.62-4.71l.65,0c.68,1.19.23,4.56-.34,5.41Zm9.55-.28c-1.59.4-.94.28-3-.2V9.41a5.92,5.92,0,0,1,3.43.88c-.2.4-.23.68-.43,1Zm-11.57-2c0,.77.26,1.36-.48,1.36s-.54-.4-.54-1.25c0-1.08,0-2.38.06-3.46,1.42,0,2.66-.06,2.92,1.33s-.68,2-2,2ZM9.21,10.71c-.62-.31-.4,0-.45-1A12.62,12.62,0,0,1,9,6c1,.06.79.26,1.39,1.22a8.39,8.39,0,0,0,.91,1.33c-.06-2.95-.23-2.3.51-2.58.57.34.31-.2.43.88l-.09,3.8c-1.42.2-.88-.54-2.44-2.52,0,2.64.28,2.3-.48,2.61ZM25.94,8.14c-1.76.43-2-.09-3.63-.2V6.21a6.83,6.83,0,0,1,3.86.85,6,6,0,0,0-.23,1.08ZM8.19,10.06c-.17.54.17.2-.37.54a2.47,2.47,0,0,1-2-.11c-1.73-.94-1.5-5,1.5-4.59,1.11.14.79.26.91.74l-.91.17a2.94,2.94,0,0,0-1,.11,2.34,2.34,0,0,0-.31,2.35c.51,1,1.53.34,2.27.79Z"/><path class="cls-1" d="M13.75,8.59c.71-.14,1-.11,1-.88s-.34-.85-1-.91Z"/></g></g></svg>