<svg xmlns="http://www.w3.org/2000/svg" viewBox="0 0 28.86 39.37"><defs><style>.cls-1{fill:#4ab9b0;fill-rule:evenodd;}</style></defs><title>contrato-empresa_1</title><g id="Camada_2" data-name="Camada 2"><g id="Camada_1-2" data-name="Camada 1"><path class="cls-1" d="M19.67,22.73h4.42v4.42H19.67Zm-7.46,0h4.42v4.42H12.22Zm-7.8,0H9.18v4.42H4.42ZM19.7,15.28h4.39V19.7H19.7Zm-3.06,3.34V19.7l-.91,0-3.51,0V15.28h4.42ZM4.42,15.28H9.18V19.7H4.42ZM19.7,8.16h4.39v4.39H19.7Zm-7.48,0h4.42v4.39H12.22Zm-7.46,0H9.18v4.39H4.76ZM.2,39.37h12V32.91h4.42v6.46H28.86V3.29c-1.87-.77-6.75-.23-9.16-.23V0H9.18V3.06H0Z"/></g></g></svg>