<svg xmlns="http://www.w3.org/2000/svg" viewBox="0 0 49.24 36"><defs><style>.cls-1{fill:#4ab9b0;fill-rule:evenodd;}</style></defs><title>contrato-parceria_1</title><g id="Camada_2" data-name="Camada 2"><g id="Camada_1-2" data-name="Camada 1"><path class="cls-1" d="M16.72,30c0-1.73,2.69-2.41,2.69,0,0,1.22-2.69,1.76-2.69,0Zm-4-2.1c0-3.57,4.56-2.55,2.61-.09-.77,1-2.61,1-2.61.09ZM10.37,25.2c-1.9,0-1.7-3.09.4-3.09s2,3.09-.4,3.09Zm7.11-9.81-.2-.17c-.14-.14-.11-.06-.28-.31-.82-1.16.48-1.93,1.79-3.23,5.44-5.44,6.66-6.66,13.78-5,3.4.79,3.37,2.3,5.9,6.46,2,3.23,3.06,4.08,1.16,7.68a74.08,74.08,0,0,1-8.48-8.08c.26,0,1.93.71,1.93-1s-5.36-1.56-6.55-1.56-3.71,2-4.56,2.55-1.33.88-2.1,1.39a5,5,0,0,1-2.38,1.28ZM14.63,14a3.76,3.76,0,0,0,.88,2.35c2.47,2.69,5.22-.34,9-2.86,2.92-2,3.29-1.7,5.87,1.5.88,1.11,5.73,5.56,7.29,6.94.71.6,1.39.77,1.39,1.67A1.61,1.61,0,0,1,37.3,25c-1.45,0-2.58-1.93-3.83-1.93-.28,0-2.27.82.34,2.55A7,7,0,0,0,36,26.73c-.17,2.07-2,1.5-3.15.82-.77-.43-2.75-2.32-3.2-.62-.23.34-.26-.48-.11.51.09.51.88,1.13,1.28,1.39a9.56,9.56,0,0,1,2.1,1.36c-.28,1-1.11,1.36-2.3,1.36s-2.66-1.93-3.66-1.93c-.09,0-2.41.68.37,2.49.91.6,1.36.68,1.56,1.33-1.19.28-1.28.88-3.06-.23l-4.25-2.47c0-1,.34-1.93-.71-3.12a3.72,3.72,0,0,0-2.95-1.3,3.29,3.29,0,0,0-3.46-2.86A3.75,3.75,0,0,0,10.77,20c-1,0-.88.2-1.73.2-1.56-2.92-.51-3.54,1.42-6.83.85-1.45,1.62-2.72,2.44-4.11,1.45-2.44,3.26-2.66,6.46-3.15.85-.14,2.07-.11,2.95-.34a11.9,11.9,0,0,1-1.08.85l-2.15,1.7c-1.25,1.16-4.45,4.14-4.45,5.73ZM0,18.45c1.16.28,4.56,2.81,5.75,3.09a3.64,3.64,0,0,1,1-1.56c.2.85.77,1.13.77,1.76,0,.31-.57,1.36-.57,1.9a3.61,3.61,0,0,0,3.46,3.66c.06,2.75,2,3.46,4.25,3.29.45.94.2,1,1.08,1.79,1.56,1.36,2.86.71,3.51.71.37,1.5,2.3,2.13,2.89,2.13,1.22,0,1.56-.65,2.64-.17,1.47.68,3.34,1.76,5.3,0,1.13-1,.6-1.13,1.76-1.53A5.13,5.13,0,0,0,34,32.43a3.75,3.75,0,0,0,1-2.24,2.79,2.79,0,0,0,2.07-1c1.19-1.19.65-1.56,1.19-2.1.2-.17,2.89-1,2.89-3.46,0-1.5-.62-.65.28-2a5.66,5.66,0,0,0,.88-1.81l.57.77c.23.37.34.6.57,1,2-1,3.83-2.24,5.78-3.29L38.47,0C37.11.31,34,2.72,32.68,3.06a5.77,5.77,0,0,0,.79,1.56c-1.5-.06-2.95-.79-6.75-.79-1,0-1.64.6-2.24.48a8.42,8.42,0,0,0-2.18-.65,31.39,31.39,0,0,0-6.55,1c.17-.74.43-.82.6-1.56-.48-.26-.91-.43-1.39-.74L12.16.71A3.49,3.49,0,0,0,10.57,0L3.91,11.42c-.65,1.11-3.86,6.21-3.91,7Z"/></g></g></svg>