<svg xmlns="http://www.w3.org/2000/svg" viewBox="0 0 40.31 38.4"><defs><style>.cls-1{fill:#4ab9b0;fill-rule:evenodd;}</style></defs><title>departamento-pessoal_1</title><g id="Camada_2" data-name="Camada 2"><g id="Camada_1-2" data-name="Camada 1"><path class="cls-1" d="M7.31,27.37v8.56A2.62,2.62,0,0,0,9.95,38.4H30.5c1.64,0,2.61-1.36,2.61-3v-7.6c0-3.94-4-5.44-7.31-6.21A52.76,52.76,0,0,1,22.14,32.1c-.14.28-.23.43-.34.65l-.4.68c0-1.84-.68-6.94-.54-7.85s.79-1.19.79-2.1a7.1,7.1,0,0,0-2.89,0c.06.79.82,1.59.82,2.07,0,2.81-.54,5.3-.54,8l-.74-1.33c-.23-.51-.45-1-.65-1.45a46.39,46.39,0,0,1-2.24-6c-.11-.48-.28-1-.45-1.59a8.33,8.33,0,0,0-.48-1.62c-2.92.68-7.17,2.32-7.17,5.81Z"/><path class="cls-1" d="M16,4.86c2.15,0,2.27.71,4.28.71s4.17-1.62,4.93,0c.28.57.11.85.2,1.59a32.35,32.35,0,0,1,.51,3.63c0,2.86-2.78,7.43-5.64,7.43-3.12,0-5.44-4-5.84-7.29a4.35,4.35,0,0,1,.28-2.1c.2-.79-.06-4,1.28-4ZM13.24,6.53c0,3.66-.14,6.32,1.87,9.33,5.24,7.82,12,.79,11.93-5.9,0-2.66.43-5.24-.54-7.31C24.83-.89,16.72-.5,14.66,1.57c-1,1-1.42,2.95-1.42,5Z"/><path class="cls-1" d="M0,25.44v4.68A1.64,1.64,0,0,0,1.79,31.9H6.21c0-4.31-.6-6.46,2.38-8.93a5.36,5.36,0,0,1,.88-.62,12.53,12.53,0,0,1,2-.94c-.34-.45.06-.17-.65-.28a3.41,3.41,0,0,0-1-.11,18.71,18.71,0,0,0-5.56.4C2.21,22,0,22.86,0,25.44Z"/><path class="cls-1" d="M28.86,21.42a8.47,8.47,0,0,1,2.66,1.36c3,2.21,2.58,3.88,2.58,7.48,0,2.07-.74,1.64,4.39,1.64.91,0,1.81-.48,1.81-1.36V24.87c0-3.15-5.58-3.83-8.05-3.94l-2.61.2c-.74.09-.48-.14-.79.28Z"/><path class="cls-1" d="M4.56,14.39l.54-3.46c2.15-.17,3.88-.57,6.35,0a10.29,10.29,0,0,1,.28,1.67c.06.79.28,1.13.28,1.79,0,2.07-1.76,5-3.74,5s-3.71-2.95-3.71-5Zm-.82-2.47a12.42,12.42,0,0,0,.77,5.13c1.53,3.2,4.59,4.37,6.94,1.08,1.39-2,1.39-3.77,1.39-6.21,0-3.12-1.47-4.42-4.56-4.42C5,7.5,3.74,8.92,3.74,11.92Z"/><path class="cls-1" d="M32.14,19.35c-2.13,0-3.71-3-3.71-5L29,10.93c1.73-.14,4.93-.77,6.49.28,0,2.66.91,2.86-.06,5.19-.48,1.19-1.7,2.95-3.26,2.95Zm-4.54-7.57v1.93c0,4.59,4.28,9,7.54,4.62,1.79-2.38,1.42-4.31,1.42-7.4,0-4.28-6-3.83-7.8-2.52-.82.6-1.16,2-1.16,3.37Z"/></g></g></svg>