<svg xmlns="http://www.w3.org/2000/svg" viewBox="0 0 38.41 35.12"><defs><style>.cls-1{fill:#4ab9b0;fill-rule:evenodd;}</style></defs><title>folha-pagamento</title><g id="Camada_2" data-name="Camada 2"><g id="Camada_1-2" data-name="Camada 1"><path class="cls-1" d="M13.44,3.86v9.58c0,.94.48.82,1.36.82,1.33,0,.82-2.41.82-4.93v-6c.57-.37.74-.82,1.39-.82H28.26c0,8.53-1.16,7.14,7.94,7.14,0,3.83.37,17.26-.26,20-1.9.45-8.33.31-11,.28s-3-.43-3,1.64c0,.62.2.82.82.82,2.83,0,12,.43,13.89-.65a3.24,3.24,0,0,0,1.76-2.64V8.79C38.41,8,30.36,0,29.62,0h-11c-2.95,0-5.22.94-5.22,3.86Z"/><path class="cls-1" d="M8,18.37c0,4.73,12.61,3.88,12.61.57V17.83c0-3.32-12.61-4.2-12.61.54Zm0,2.49c0,3.23,7.88,3.88,11.34,2a2,2,0,0,0,1.28-2.58c-1.33,1-1,2.47-6.86,2.47-2,0-4.73-.65-5.22-2.72-.45.31-.54,0-.54.82Z"/><path class="cls-1" d="M0,26.62v1.08c0,3.34,12.61,4.17,12.61-.54S0,23.3,0,26.62Z"/><path class="cls-1" d="M18.37,13.44c.31.6.48,1.39,1.39,1.39H32.63a1.24,1.24,0,0,0,0-2.47H19.76c-.74,0-.26-.2-1.39,1.08Z"/><path class="cls-1" d="M21.94,23c0,2.64-1,1.93,9.86,1.93,2.75,0,1.73-2.18,1.64-2.47-2.52-.6-7.82-.28-10.69-.28-.62,0-.82.2-.82.82Z"/><path class="cls-1" d="M22.22,19.76h4.93c2.13,0,3.83.48,3.83-1.39,0-1.59-2.55-1.08-4.11-1.08H21.66a16.49,16.49,0,0,1,.57,2.47Z"/><path class="cls-1" d="M5.22,35.12c2.81,0,7.4.17,7.4-3.57C11.06,32.68,11.2,34,6,34c-2.92,0-3.83-.6-5.39-2-.45-.4,0-.23-.65-.45,0,2,.26,2.13,1.64,2.75a9.21,9.21,0,0,0,3.57.82Z"/><path class="cls-1" d="M5.22,32.66c2.81,0,7.4.17,7.4-3.57C11.17,30,11.4,31.55,6,31.55c-4.68,0-4.88-2-6-2.47,0,1.93.26,2.13,1.64,2.75a9.21,9.21,0,0,0,3.57.82Z"/><path class="cls-1" d="M12.9,25.23c.65,1.25-.06,1.11,3,1.11,1.11,0,5.27-.74,4.68-3.57-1,.71-.37,1.25-2.92,2a13.4,13.4,0,0,1-4.76.43Z"/><path class="cls-1" d="M13.72,31.55a13.83,13.83,0,0,0,4.71-.77,3.16,3.16,0,0,0,1.7-1.08c.85-.94.54-.77.45-2l-.37.45a.75.75,0,0,0-.14.17,4.22,4.22,0,0,1-2.49,1.59c-2.86.82-3.8-.77-3.86,1.64Z"/><path class="cls-1" d="M13.72,28v1.11a10.91,10.91,0,0,0,5.13-.91l1.45-1c.62-.79.37-.82.28-1.9l-1,1.19C18.2,27.67,15.68,28,13.72,28Z"/></g></g></svg>