<svg xmlns="http://www.w3.org/2000/svg" viewBox="0 0 32.88 38.4"><defs><style>.cls-1{fill:#4ab9b0;fill-rule:evenodd;}</style></defs><title>holerites</title><g id="Camada_2" data-name="Camada 2"><g id="Camada_1-2" data-name="Camada 1"><path class="cls-1" d="M9.81,12.27c3.46-.11,2.52-4.65,2.58-7.91.31-.57,3-.23,3.77-.23h4.22c1.22,0,7.68-.31,8.11.26.26.17.2-.23.31.48V33.56c-.14.82,0,.26-.31.48-.17.45-5,.26-5.81.26H16.55c-1.62,0-11.65.37-12.16-.26-.26-.17-.17.23-.28-.48V12.39a22.45,22.45,0,0,1,5.7-.11ZM0,9.72C.26,11.25.09,21.54.09,24c0,15.85-1.47,14.34,14.34,14.34,4.68,0,9.67.17,14.29,0,3.71-.85,4.08-2.44,4.08-6.49v-21c0-3.06.57-7.65-1.25-9.47S25.31.08,22.28.08H11.57c-2.24,0-2.49.4-3.63,1.53C6.66,2.92,1.33,7.79.54,9c-.28.43-.11.43-.54.77Z"/><path class="cls-1" d="M7.11,19.1c.85.26,17.8.26,18.65,0a4.16,4.16,0,0,0,.06-2.49c-1-.26-17.8-.26-18.77,0v2.32c0,.06,0,.11.06.17Z"/><path class="cls-1" d="M21.83,22c-3.06.31-2.92,2.72-2.24,3.54,1.28,1.47,3.8.82,4.56,2.1-.11.88-.68,1.13-1.67,1.11-2-.11-.26-1.22-3.12-1C19,29.11,20.52,29.9,21.88,30c0,.71-.09.74.14,1.28,1.3.54,1.22-.14,1.19-1.3,1.62-.06,3.71-1.5,2.41-3.43-.79-1.22-3.57-1.08-4.68-2,.09-1,.6-1.39,1.67-1.33,2.18.11.17,1.3,3.2,1,.09-1.47-1.11-2.15-2.52-2.3-.11-.74.09-1.36-.68-1.47-1-.11-.71.68-.79,1.45Z"/><path class="cls-1" d="M7.06,27.49A4.39,4.39,0,0,0,7.11,30a61.6,61.6,0,0,0,9.16,0,3.93,3.93,0,0,0,.06-2.55,63.15,63.15,0,0,0-9.27,0Z"/><path class="cls-1" d="M6.94,22.85,7,24.52a64.52,64.52,0,0,0,9.38.09c.23-1.93.34-2.66-.6-2.66H7.94c-.91,0-1-.06-1,.91Z"/><path class="cls-1" d="M16.55,11l7.94,0c.34-2.3.26-2.64-.88-2.64H17.12c-.85,0-.65.11-.71.94A7.13,7.13,0,0,0,16.55,11Z"/></g></g></svg>