<svg xmlns="http://www.w3.org/2000/svg" viewBox="0 0 32.18 45"><defs><style>.cls-1{fill:#4ab9b0;fill-rule:evenodd;}</style></defs><title>honorarios_1</title><g id="Camada_2" data-name="Camada 2"><g id="Camada_1-2" data-name="Camada 1"><path class="cls-1" d="M0,35.67v1.89H17.33V35.38l2.1-.16c-.08-.32-.43-.56-.77-1.17a6.13,6.13,0,0,1,2.26-8.16c1.52-.9,1.22.27,1.22-2.92H23a9.88,9.88,0,0,0-4.17-4.17l-4,7.26a11.53,11.53,0,0,0-.64-3.38c-1,.27-1,1.06-2.13.35a2.43,2.43,0,0,0-.35-.21c-.72-.32-.61.51-.74,1.46A10.23,10.23,0,0,0,10.79,26l-.51-.85c-.77-1.57-2.5-4.6-3.48-6.41a4.47,4.47,0,0,0-.9.53,9.87,9.87,0,0,0-2.31,2.15,12.87,12.87,0,0,0-2,3.83A31.11,31.11,0,0,0,0,35.67Z"/><path class="cls-1" d="M3.72,8.61a8.39,8.39,0,0,0,.9,4.55,8.87,8.87,0,0,0,1.86,2.58,9.31,9.31,0,0,0,6.22,2.61C17.81,18.34,22,14,22,9.62a8.88,8.88,0,0,0-2.74-7A9,9,0,0,0,9.2.76,9.08,9.08,0,0,0,3.72,8.61Z"/><path class="cls-1" d="M24,26.39c0,.37-.66.32-1.52.69-3.3,1.36-4.52,6.78,1.12,8.43,1.7.51,5.56,1,5.56,2.53v.35c0,2.39-6.43,3-7-.85-.08-.56.16-.85-.53-.74-.37.05-.93.11-1.25.13a10.81,10.81,0,0,1-1.25.11c0,3.22,1.62,5,4.49,5.85.58.16.43,0,.43,2.13h3.88V42.93a5.32,5.32,0,0,0,3.8-2.66,4.6,4.6,0,0,0-.4-4.89c-2.9-3.22-8.56-1.83-8.56-4.44,0-1.91,5.21-2.45,5.9.08.37,1.38-.21,1.22,1,1.2L31.77,32a5.07,5.07,0,0,0-3.16-5c-.9-.32-.74.16-.74-2.26H24Z"/><path class="cls-1" d="M11.17,20c0,1.75-.19,1.6.72,2.1s.85.64,1.86,0,.77-.21.77-1.94c0-.9-1.09-.64-2.71-.64-.32,0-.64.16-.64.45Z"/></g></g></svg>