<svg xmlns="http://www.w3.org/2000/svg" viewBox="0 0 39.29 38.38"><defs><style>.cls-1{fill:#4ab9b0;fill-rule:evenodd;}</style></defs><title>impostos-renda_1</title><g id="Camada_2" data-name="Camada 2"><g id="Camada_1-2" data-name="Camada 1"><path class="cls-1" d="M19.22,3.57c.09,0,.2.06.26.11s0,0,.06,0,.11.09.26.17,0,0,.14.11S20,4,20,4s.28.26.28.26,0,0,.14.11.09.06.17.11l.09.09c.06.06.14.11.14.2s0,0,0,0,0,0,0,0h.06a1.31,1.31,0,0,1,.2.2c.11.11.14.17-.09.17-.06-.09-.06-.06-.17-.09s-.17-.06-.17-.09h0c-.14,0-.17,0,0,.17s0,0,.06,0,.06.09.11.14v0l.06.06s0,0,0,0a1.54,1.54,0,0,1,.17.31l0,.06c.06.09,0,.11.06.2s.09.09,0,.14-.14,0-.2,0a.16.16,0,0,0-.17-.06l0,0c0,.14,0,.28,0,.51.09.06.06,0,.09.11l0,.06,0,0,.14.37c0,.09,0,0,.06.09s0,.06.06.14l.11.2.06.11c.06.06.06.14.14.28s0,0,.06,0,0,.06,0,.11,0,0,.09.09l0,.09a.25.25,0,0,1-.31.06c-.17-.11-.09,0-.2-.11l-.06,0a.31.31,0,0,0,0,.14c0,.09,0,0,.06.09l.11.2a.42.42,0,0,0,.06.11.21.21,0,0,0,0,.11c0,.14.06,0,.06.26V9.3a.17.17,0,0,1,.09.17c.06.23-.06.14.09.26V10s-.09,0-.14,0-.11-.11-.23-.14-.06,0-.11-.06l-.28-.06c0,.26.14,0,.11.51h0s0,0,.06,0c0,.43,0,.34,0,.43s.06.09,0,.2,0,.11-.09.17-.11-.11-.23-.23l-.2-.28a.24.24,0,0,0-.2-.11c0,.26.06.06.09.23a.53.53,0,0,1-.06.23,3.88,3.88,0,0,1-.06.45c-.06.09,0,.14-.06.26a2.56,2.56,0,0,0-.14.26c0,.06,0,.11-.06.2l-.06.11c0,.06-.09.11-.11.17a.31.31,0,0,0-.06.23l-.11.17h0c-.09.11,0,.09-.11.26s0,.06-.11.09,0,.17-.09.23,0,0-.14.17-.14,0-.17-.2,0-.09,0-.17S19,13,19,13s0,0,0-.09,0,0-.17-.31c0,0,0-.06,0-.11s-.06,0-.11,0c-.14.2,0,.31-.17.37,0,.06,0,.14,0,.17l-.06.09c0,.06,0,.06-.09.09s-.06.14-.14.23-.09.09-.17.14-.06.09-.17.17,0,0-.06.06-.06.06-.14.09h0c0,.06,0,.09-.06.06s0,0,0,0,0,.06-.06.06,0,0,0,0,0,.09-.09.09h0c0,.06,0,.09-.06.06s0,.06,0,0,0,0-.06.09l0,0c0,.06-.06.14-.14.14a.71.71,0,0,1-.11.2l-.17.11c-.06-.09,0-.14,0-.26a1.27,1.27,0,0,1,0-.31.17.17,0,0,1-.09-.17s0,0,0,0-.09,0-.06-.06l-.09,0,0-.06c-.06,0-.06,0,0,.17,0,.37-.06.17-.09.37s0,.14-.09.14,0,0,0,.09,0,0-.11.2h0s0,0,0,0c-.2.26-.06.43-.34.34a1.27,1.27,0,0,0,0-.31c0-.14,0-.06-.06-.11l-.11-.06h0l-.06.06c-.06.06-.06,0-.06.14a1.06,1.06,0,0,1,0,.31c-.09,0,0,0-.09,0l-.06-.06,0,0s0-.14,0-.23-.06,0-.09-.06h0l-.06-.11s0,0,0,0-.06,0,0,0,0,0,0,0,0,.06,0-.06-.11-.09-.11-.14-.09-.09-.09-.26a1.6,1.6,0,0,1,0-.37,2.78,2.78,0,0,1-.28.2,1.87,1.87,0,0,1,0,.4c0,.14,0,0-.06.11s0,.09,0,.17-.06-.09-.28-.26,0,0-.11-.14l-.37-.4a2.48,2.48,0,0,0-.28-.23c-.14-.11-.06-.09-.11-.14s-.06,0-.11-.06,0,0-.11-.11-.06-.11-.17-.2-.06-.06-.09-.17-.06-.06-.09-.2,0-.34-.09-.4-.26.31-.34.45a.82.82,0,0,0,0,.37.43.43,0,0,1-.14.26c-.11,0-.06-.06-.14-.14a.62.62,0,0,1-.11-.14c-.06-.09,0,0-.11-.2h0c-.2-.26-.11-.2-.26-.45s0-.14-.09-.2,0,0-.06-.09a.1.1,0,0,0,0-.09.22.22,0,0,1-.06-.09.83.83,0,0,1-.09-.28c0-.14-.06-.09-.09-.2s0-.09,0-.11a.75.75,0,0,1-.06-.31c0-.17-.06-.11-.09-.17a3.41,3.41,0,0,1,0-.54c-.23.09-.11.09-.31.26s0,.11-.11.2l-.09.11c-.26,0-.17-.45-.17-.68s0-.26.06-.37l0-.09c.06-.2.09-.06.06-.23a4.72,4.72,0,0,0-.57.23c-.09.06-.09.14-.14.09s0-.37.06-.57,0-.17.06-.28.09-.06.11-.26l.09-.26c0-.06,0,0,.09-.06v-.2c-.14,0-.14,0-.23.06a.25.25,0,0,1-.34,0c0-.06.06-.06.09-.09s0-.06.06-.11,0,0,.09-.11,0,0,.06-.09V8l0,0c.11-.14,0-.11.23-.37l.11-.26c0-.14.06-.06.09-.23l.17-.34c0-.06,0,0,.09-.09a3.79,3.79,0,0,1,0-.57,1.28,1.28,0,0,0-.31.09c-.09,0,0,0-.09,0a.45.45,0,0,1,0-.2c0-.06,0,0,.06-.14s0-.06.09-.14l.06-.14a1,1,0,0,1,.17-.26l.14-.14c0-.06.06,0,.06-.11a.48.48,0,0,0-.2,0c0,.09,0,.09-.11.09S10,5.36,10,5L10.2,5l.74-.68c.09-.06.09-.09.17-.14S11.2,4,11.4,4c0-.09,0-.06.09-.11l.34-.23c.11,0,.2-.14.34-.17s.11-.06.26-.09l.09,0c0-.14,0,0-.09-.11l-.11-.11h0L12.25,3c0-.09-.06-.11,0-.11a0,0,0,0,1,0,0c.06,0,.06,0,.11,0a6.39,6.39,0,0,1,.74,0,3,3,0,0,1,.54.11.09.09,0,0,0,.06,0c.11.09.11,0,.17.11a1.36,1.36,0,0,0,.34,0c.09-.09-.09-.28-.14-.37s0-.26.11-.17,0,0,.09,0a.68.68,0,0,1,.26.09A2.22,2.22,0,0,1,15,3c.14.06.09.11.28.17a.62.62,0,0,0,0-.23c0-.14,0-.11,0-.17s.09,0,.11,0a.88.88,0,0,1,.2.26s.09-.09.11-.14.2-.14.2.06,0,.34.11.23L16.24,3a.24.24,0,0,1,.14-.09c.06-.06.09-.06.14-.11s.14-.06.28-.14.34-.09.4,0-.06.17-.11.28S17,3.06,17,3.2s0-.06.34-.09c.06-.09,0-.06.17-.09s.06-.06.2-.09a.78.78,0,0,0,.26,0,.53.53,0,0,0,.2-.06h.54c.14,0,.11.06.2.09s.14,0,.2.09-.11.09-.17.14-.09.11-.17.17-.06,0-.06.11a1.08,1.08,0,0,1,.43,0l.06.06h0a0,0,0,0,1,0,0ZM1.56,0H29.65c.06,0,.09,0,.2.09a2.74,2.74,0,0,1,1.08,1,3.56,3.56,0,0,1,.28,1.56V15.36c-.23,0-.79-.06-1-.06h-.34c-.2,0-.91,0-1.11,0a1.16,1.16,0,0,1-.31,0A9.69,9.69,0,0,0,24,16.78c-.28.2-.57.4-.85.62a3.74,3.74,0,0,1-.94.51c-1.5,0-3-.09-4.51-.09-3,0-6.24-.06-9.18,0a37.07,37.07,0,0,0-4.42.2l.11,1c.62.37,7.11.23,8.31.2s8-.23,8.39.09c0,.09,0,.11.06.2s-.17.11-.23.17-.11.14-.2.23a2.81,2.81,0,0,0-.31.48,1.15,1.15,0,0,0-.14.26l-.43.77a27.77,27.77,0,0,1-3.83.23c-2.69,0-5.33-.06-8-.06-.31,0-.65,0-1,0-.94,0-2.47-.31-2.72.74,0,.11.06.17.17.31a.76.76,0,0,0,.71.28c2,0,4.05,0,6.07-.06,1,0,7-.09,7.94.11,0,.11,0,.2,0,.28A5.24,5.24,0,0,0,18.71,25c-.11.06-.17.14-.28.2a1.15,1.15,0,0,1-.45,0H7.48c-.62,0-1.25-.06-1.87-.06s-1.28.06-1.45.45c-.28.62.34.88.85.94a13.74,13.74,0,0,0,1.87,0c.62,0,1.3,0,1.93,0l5.7.06c.65,0,1.28,0,1.9,0s1.3-.06,1.9,0a4.85,4.85,0,0,1,.26.85.46.46,0,0,0,.11.2l0,0a4.14,4.14,0,0,1,.09.62,1.16,1.16,0,0,0,0,.31v.31c-.62,0-1.28.06-1.93.06-3.29.09-6.72,0-10,0-.51,0-1.64-.09-2-.06a.8.8,0,0,0-.68.34,1.45,1.45,0,0,0-.09.85c.77.34,6.35.2,7.57.17s2.61-.06,3.88-.06c.65,0,1.3,0,1.93,0a6.93,6.93,0,0,1,1.76.23,5.91,5.91,0,0,1,.43.85l.57,1.08a1.15,1.15,0,0,0,.14.26c-.26,0-.74,0-1,0l-3.06-.06c-1.81,0-11.68-.09-12.19.23v1c.57.34,12,.17,14.09.17.77,0,1.56-.06,2.32-.06a1.89,1.89,0,0,1,1,.2,3.61,3.61,0,0,1,.54.37.9.9,0,0,0,.17.14,2,2,0,0,0,.54.54,19.8,19.8,0,0,0,2,1.19l1,.43a7.87,7.87,0,0,0,1.39.43l1,.11,1.39,0c.14,0,.2,0,.34,0,.31,0,.88.06,1,.06a1.59,1.59,0,0,1-.28.43l-.4.31-.28.17a1.17,1.17,0,0,1-.31.14H1.53a2.18,2.18,0,0,1-.82-.54.39.39,0,0,1-.11-.09L.37,37.5A1.66,1.66,0,0,1,0,37V1.45c0-.09.06-.14.2-.34L.28,1S.34.88.4.85A3.08,3.08,0,0,1,1.13.23c.2-.11.28-.23.43-.23Z"/><path class="cls-1" d="M29.42,18.17a7.84,7.84,0,0,1,3.6.77,1.69,1.69,0,0,1,.31.17,9.17,9.17,0,0,1,.94.57c.14.11.57.43.68.54a6.48,6.48,0,0,1,.62.62l.26.26.79,1.16c.14.23.26.45.37.68s.2.45.28.71a8.31,8.31,0,0,1,.23,4.71A6.92,6.92,0,0,1,37,29.82a8.22,8.22,0,0,1-.54,1l-.31.43c-.06.06-.06.09-.11.14A8.13,8.13,0,0,1,32.14,34a6.49,6.49,0,0,1-.79.23,8.14,8.14,0,0,1-2.75.14c-.14,0-.31,0-.45-.06s-.57-.11-.82-.2A8,8,0,0,1,24.94,33a6.9,6.9,0,0,1-.71-.57c-.06-.06-.09-.06-.14-.11a.5.5,0,0,0-.11-.14s0,0-.06-.06,0,0,0,0L23.78,32h0s0,0,0-.06a7.76,7.76,0,0,1-2.07-3.74,7.6,7.6,0,0,1-.14-.85c0-.2-.06-.71-.09-1l.06-.94a8.12,8.12,0,0,1,.79-2.75,7.15,7.15,0,0,1,.79-1.25l.2-.28.26-.26a.5.5,0,0,1,.11-.14.5.5,0,0,0,.11-.14,8.36,8.36,0,0,1,5.67-2.44Zm9.86,8v.43a7.84,7.84,0,0,1-.2,1.73,8.57,8.57,0,0,1-.54,1.79,9.58,9.58,0,0,1-1.33,2.18l-.26.31c-.34.34-.48.51-.88.88l-.31.26a10.09,10.09,0,0,1-3.69,1.87.88.88,0,0,0-.23.06,9.83,9.83,0,0,1-5-.14l-.45-.14-.23-.09-.43-.14a7.73,7.73,0,0,1-1.33-.77,2.36,2.36,0,0,1-.34-.23l-1.19-1a2.26,2.26,0,0,1-.37-.37,9.61,9.61,0,0,1-2.61-6.29v-.37a9.6,9.6,0,0,1,.57-3c.06-.17.11-.28.17-.45.17-.37.4-.85.6-1.19,0,0,0-.06.06-.09L22.2,20a5.9,5.9,0,0,1,.6-.6,9.17,9.17,0,0,1,1.67-1.3,4.2,4.2,0,0,0,.37-.23l.82-.4a8.81,8.81,0,0,1,1.79-.6c.54-.11.77-.14,1.28-.23a11.78,11.78,0,0,1,2.66.11,11,11,0,0,1,2.66.91.71.71,0,0,0,.2.11l.91.57a9.63,9.63,0,0,1,2,1.87,10.31,10.31,0,0,1,2,4.76,7.21,7.21,0,0,1,.09,1.16Z"/><path class="cls-1" d="M28.09,26.39c-.09-.09-.14-.17-.23-.26L27,25.06a2.91,2.91,0,0,0-.77-.71,1.18,1.18,0,0,0-.23.17l-.51.48c-.06.06-.11.06-.17.14l-.57.57-.4.45a2.83,2.83,0,0,0-.34.54,1.72,1.72,0,0,1,.28.2,17.4,17.4,0,0,1,1.28,1.22,2.06,2.06,0,0,0,.23.26c.26.28,1.3,1.39,1.47,1.53a.5.5,0,0,1,.14.11,3.6,3.6,0,0,0,.71.54c.09,0,.31-.26.37-.28l.57-.54a1.42,1.42,0,0,0,.23-.2c.26-.26.65-.6.91-.85l.28-.26L31,28s0,0,0,0c.2-.14.31-.31.57-.54s.82-.82,1.08-1.08l1.3-1.3c0-.06.06-.06.11-.11l.31-.34.6-.71c0-.09.14-.17.17-.28s-.28-.28-.37-.4-1-1.11-1.11-1.16a3,3,0,0,0-.57.34l-.17.14-2.38,2-.17.11c-.51.43-1.08.85-1.56,1.25Z"/><path class="cls-1" d="M14.37,9.13c-.23,0-.17-.06-.31-.11S14,9,14,9s0,0,0,0,0,0-.06,0h0c-.06,0-.06,0-.11-.06s-.37-.31,0-.43L14,8.39c.09,0,0,0,.11,0a1.14,1.14,0,0,1,.31,0c.09,0,.17.2.17.23h0a1.06,1.06,0,0,1,0,.6.17.17,0,0,1-.28-.06Zm3-.26s0,0,0,.06l0,0a.21.21,0,0,1-.11,0s0,0,0,0-.06.06-.14.09,0,.06-.14.09-.11.11-.34.06a1.06,1.06,0,0,1,.06-.71h0c0-.09,0-.09.11-.11s0,0,.11,0,.06,0,.11,0,.2,0,.31,0,.11.06.23.09.09.26,0,.34ZM14,6.32l-.09.06-.14.06c-.06.06,0,0-.11.06s0,0-.09.09a1.41,1.41,0,0,0-.2.14c-.09.06,0,0-.11.06a1.92,1.92,0,0,0-.34.34l-.11.14c-.14.14,0,.2,0,.26l.06.11c.06.06,0,0,.06.11s0,.09.06.11,0,.2.06.28.06,0,.06.11.09.26,0,.45,0,.17,0,.31S13,9,13,9.27a2.68,2.68,0,0,0,0,.68h0L13,10s0,.09.06.11,0,0,.06.09v.14c.11,0,0,0,.11.09v0l0,0c.11.2.14.2.37.23l.17.11c0,.11,0,.17-.09.2l0,0h0c.06.06.06.06.06.11s.06.06.06.17,0,.14.09.23a.75.75,0,0,0,.4.26l.2,0c.2,0,.11,0,.2,0l.09-.06c.06,0,.06,0,.11,0s0,0,0,0,.06,0,.34-.28l.06,0a.73.73,0,0,0,.06-.14c.09-.2,0-.09,0-.26s0-.09,0-.11-.14-.11-.17-.14l-.14-.14c-.06-.06,0,0-.06,0s0,0,0,0l-.17-.17c0-.09.11-.2.14-.26a.31.31,0,0,1,.23,0,.13.13,0,0,1,.14.09c.11-.06.31,0,.43,0s.06-.06.17-.06.23-.06.26.06,0,0,0,.09.06,0,.06.09-.31.31-.37.34-.06.09-.11.14-.09.09-.09.14a.46.46,0,0,0,.11.45c.06.06,0,.09,0,.06h0c.11,0,0,0,.14.11s.23.14.51.14h.2c.17,0,.09,0,.17-.06s.11,0,.31-.26,0-.31.11-.6c0-.11,0-.06.14-.17s.09,0,.14-.06l.17-.09c.09,0,0-.06.14-.06s0,0,0,0v-.06h.09c0-.11,0-.11,0-.17s0-.09.06-.14.06,0,.06-.14,0-.09,0-.17a.66.66,0,0,0,.06-.34c0-.2-.06,0-.06-.34a1.74,1.74,0,0,1,0-.37.51.51,0,0,1-.06-.31c0-.06.06-.09.06-.14v-.2c.06-.23,0,0,.09-.2l0-.06v0c0-.09,0,0,0-.09l.14-.23h0c0-.06,0-.06,0,0s0,0,0-.11a.29.29,0,0,0,0-.09c0-.06,0,0-.06-.06v0h0v0h0s0,0,0,0L18,6.83c-.11-.06-.09-.11-.14-.14s0,.06-.17-.09a1.11,1.11,0,0,0-.14-.11c-.09-.06-.06,0-.06-.06s-.11,0-.17-.06-.14,0-.2-.14a1.6,1.6,0,0,1-.37,0c-.09,0-.09,0-.14.06s0,0-.11,0h0l0,0c-.09.09-.09.06-.17.09s-.06.09-.2.06,0,.09-.14.11,0,0-.09.09-.06,0-.14.09v0c-.14.11-.09,0-.09,0s-.06,0,0,0,0,0,0-.06h0c-.11,0-.06,0-.06,0s-.09,0-.09-.11,0,.06,0,0,0,0,0,0-.11,0-.14-.09-.23-.11-.4-.17-.06-.06-.17-.09-.09,0-.23-.09-.11.06-.23.09-.09.09-.23.09Z"/><path class="cls-1" d="M12,5s0,0,0,0,0,0,0,0,0,0-.09,0,0,.09-.06.14l-.2.31h0c0,.06,0,.09-.06.17h0a.36.36,0,0,1,0,.17c0,.06,0,0,0,.09v.14c0,.06,0,.09,0,.14v.31l.09.4c.06.09,0,0,.09.14s0,0,0,0v0l.26.23c.06.06.06,0,.14.06s0,.06.14.06c0-.06,0,0,0-.06v0c0-.06.06-.06.06-.11s0-.09,0-.11,0-.14,0-.26S12,7,12,7s0-.11,0-.2,0-.09,0-.14.06,0,.06-.14-.17.06-.2,0-.06,0,.09-.23,0,0,.11-.14.06-.06.11-.14S12.08,6,12,6a.09.09,0,0,1,0-.14c0-.06,0-.06.11-.06s0,0,0-.06,0,0,0,0,0,0,0,0h0s0,0,.06,0h.09c0-.06,0,0,0-.06s0,0,.06,0h0l.09,0a.22.22,0,0,0,.11-.11s0,0,0,0-.06,0-.06-.09,0,0-.06-.11,0-.06-.06-.11-.06,0-.06-.11l-.11-.11c-.06-.06,0,0,0-.06h-.14c0,.09,0,.09-.11.09Z"/><path class="cls-1" d="M18.82,5c0,.09,0,.06-.06.11l-.09.11v.09h-.06c0,.06,0,.06,0,0s0,0,0,0,0,.09-.06.14.17,0,.34.23c0,0,0,0,.06,0H19s0,0,0,0l.06,0h0l.14.09c.11.09.06.2-.09.14,0,.06,0,0,0,0s0,.09-.09.11l.09.06v0l.17.14.06.11c0,.06,0,.06,0,.11s0,0-.2-.06h0l.09.14c.06.09,0,0,.06.09s0,.2-.17.2a.31.31,0,0,1-.06.23L19,7.29l.11.17c.11,0,0,0,.11-.06s.06,0,.11-.06a.45.45,0,0,0,.2-.2l.06-.09.06-.11c.06-.11,0-.17.09-.23a0,0,0,0,1,0,0V6h0c-.06,0,0,0-.09-.06s0-.06,0-.09l0,0V5.64c-.06-.06,0,.06,0,0s0,0,0-.06-.06.06,0,0v0l0-.06c0-.06,0,0,0,0s0,0,0-.09-.09-.09-.14-.2-.09,0-.14-.11-.06,0-.11-.09-.17,0-.28,0Z"/><path class="cls-1" d="M14,6.32c-.09,0-.28.11-.4.17s-.09,0-.23.17l-.09.06h0L13,7c0,.06-.09.11-.11.17l-.09.09-.09.06c0,.11-.09,0,.06.23a.42.42,0,0,0,.14.17l0,.09,0,.06c.11.23.06.06.09.26s.11-.14.09.74c0,.2,0,.17-.11.31V10l.09.09c0,.23.06.14.09.26l.11.11a0,0,0,0,1,0,0c.2.28.11.11.31.28a.67.67,0,0,0,.23.06v.09c0,.14-.09.06,0,.17s0,0,.09.23a.56.56,0,0,0,.23.4l0,0h0l.09.06a1,1,0,0,0,.6.11c.06,0,0,0,.14-.06l.06,0s0,0,0,0l.06,0a.84.84,0,0,0,.48-.51c0-.09,0-.09,0-.14v-.17c-.06-.06-.06-.09-.14-.11s-.34-.31-.45-.37.09-.14.11-.2l0,0c.2,0,.23.06.34.06l.06,0a2.56,2.56,0,0,0,.65-.09h.09v0l.09.2c-.11.09,0,.09-.31.28l-.11.09c-.06.06-.09.06-.14.11v.37c0,.11,0,.06.09.14s0,.06,0,.11h.11v.06l0,0c.06.09.09.06.17.11a.69.69,0,0,0,.65.11l.17-.06c.09,0,0-.06.14-.06h0c.28-.28.17-.17.26-.37s0,0,0-.11,0-.37.06-.43,0,0,0,0,0,0,0,0a.51.51,0,0,1,.23-.11l.09-.06c.06,0,.06,0,.11-.06l.06-.06s0,0,0,0,0,0,0,0,0,0,.06,0l.06-.11c.11-.28.06,0,.17-.43s-.2-1.42,0-1.73a.66.66,0,0,0,.06-.34s0,0,.06,0l0,0a.1.1,0,0,1,0-.09c0-.09.09-.06.06-.17s0,0,0,0c.17,0,.06-.09,0-.14s0-.06-.11-.17-.06,0-.09-.09c-.11-.23-.06-.06-.17-.23S18,6.83,18,6.77s0-.09-.17-.14-.23-.2-.34-.2l-.06-.06,0,0a1.19,1.19,0,0,0-.28-.11h0L17,6.18c-.11-.06-.2,0-.37.06s0,0-.11.09-.06,0-.11,0a2.65,2.65,0,0,0-.28.14l-.06,0c-.14.11-.06,0-.2.14s-.14.14-.2.14,0,0,0,0,0-.06,0-.06,0,.06,0,.06,0,0,0,0-.06.11.09,0v0c.09-.06.09,0,.14-.09s0-.06.09-.09.11,0,.14-.11.11,0,.2-.06.09,0,.17-.09l0,0h0c.09,0,.06,0,.11,0s.06-.06.14-.06a1.6,1.6,0,0,0,.37,0c.06.14.06,0,.2.14s.06.06.17.06,0,0,.06.06a1.11,1.11,0,0,1,.14.11c.2.14.09,0,.17.09s0,.09.14.14l.34.34s0,0,0,0h0v0h0v0s0,0,.06.06a.29.29,0,0,1,0,.09c0,.09.06,0,0,.11s0,0,0,0h0l-.14.23c0,.09,0,0,0,.09v0l0,.06c-.09.17,0,0-.09.2v.2c0,.06,0,.09-.06.14a.51.51,0,0,0,.06.31,1.74,1.74,0,0,0,0,.37c0,.34,0,.14.06.34a.66.66,0,0,1-.06.34c0,.09,0,.09,0,.17s0,.09-.06.14,0,.09-.06.14-.06.06,0,.17H18v.06c-.06,0,0,0,0,0s-.06,0-.14.06l-.17.09c-.06,0-.09,0-.14.06s-.11.06-.14.17c-.11.28,0,.45-.11.6s-.23.2-.31.26,0,0-.17.06h-.2c-.28,0-.34,0-.51-.14s0-.09-.14-.11h0s0,0,0-.06a.46.46,0,0,1-.11-.45c0-.06,0-.09.09-.14s.06-.09.11-.14.37-.23.37-.34,0,0-.06-.09,0-.06,0-.09-.06-.09-.26-.06-.06,0-.17.06-.31,0-.43,0a.13.13,0,0,0-.14-.09.31.31,0,0,0-.23,0c0,.06-.17.17-.14.26l.17.17s0,0,0,0,0,0,.06,0l.14.14s.14.06.17.14,0,.06,0,.11.09.06,0,.26a.73.73,0,0,1-.06.14l-.06,0c-.28.31-.31.17-.34.28s0,0,0,0-.06,0-.11,0l-.09.06c-.09,0,0,0-.2,0l-.2,0a.75.75,0,0,1-.4-.26c-.09-.09-.06-.09-.09-.23s0,0-.06-.17,0-.06-.06-.11h0l0,0c.11,0,.09-.09.09-.2l-.17-.11c-.23,0-.26,0-.37-.23l0,0v0c-.09-.09,0-.06-.11-.09V10.2c0-.11,0,0-.06-.09s0-.09-.06-.11l0-.06h0a2.68,2.68,0,0,1,0-.68c0-.23.06-.11.09-.26s0-.2,0-.31,0-.26,0-.45,0-.09-.06-.11S13,8,13,7.85s0-.06-.06-.11,0-.06-.06-.11l-.06-.11c0-.06-.14-.11,0-.26l.11-.14a1.92,1.92,0,0,1,.34-.34c.09-.06,0,0,.11-.06a1.41,1.41,0,0,1,.2-.14c.09-.09,0,0,.09-.09s.06,0,.11-.06l.14-.06L14,6.32c.14,0,0,0,.23-.09s.06-.06.23-.09,0,.06.23.09,0,.06.17.09.26.2.4.17,0,.11.14.09,0,0,0,0,0,0,0,0,0,.09.09.11-.06,0,.06,0,0,0-.06,0,0-.06-.09-.11,0,0,0,0,0-.06,0,0h0l-.14-.09a1.93,1.93,0,0,0-.6-.28c-.37-.11-.2-.11-.51,0s-.11.09-.14.11Z"/><path class="cls-1" d="M15.31,12c-.06,0,0,0-.06,0l0,.06a1,1,0,0,0-.28.2c.14.17.09.2.2.2s0,0,.06,0,.14,0,.28,0a1.27,1.27,0,0,1,.34,0,1.15,1.15,0,0,1,.26-.14c.06,0,0,0,.06,0s0,0,0,0c0-.14,0-.06,0-.06v-.09s0,.09,0-.06H16c-.06-.09,0-.06-.09-.09a.62.62,0,0,1-.14-.09c-.09-.06,0-.06-.11-.09s0,0-.06,0l-.06-.06c-.06.06,0,.06-.09.11s-.06.06-.17.06Z"/><path class="cls-1" d="M18.6,5.33s0,0,0,0,0,0,0,0,0,0,0-.06,0,0,0,0,0-.09.06-.14a.1.1,0,0,1,0-.06c.06,0,0,0,.06,0,0-.23.37-.06.43.06l.11.11c.09,0,0,0,.09.09a.42.42,0,0,1,.06.11c.11.06.11.09.09.2s0-.06,0,0,.06,0,0,.09h0a.25.25,0,0,1,0,.2s0,0,.06.06,0,0,0,.09h0l0,.37v.37s0,0,0,0-.06,0,0,0,0,0,0,0l0,.09c0,.23-.09.14-.06.26s0,0-.06,0l0,0s0,0,0,0l0,0,0,0c-.14.17-.2.14-.28.2s-.06,0-.17,0c-.2-.34-.06-.11,0-.34a.7.7,0,0,1,0-.26c.09-.06.09,0,.2,0,0-.2-.17-.37-.23-.48.2-.06.09.06.23.06s0,0,0-.09,0-.09-.09-.14l0,0,0-.06L19,6.09C19,6,19,6,19.11,6s0,0,0,0l0,0c.09,0,0,0,.06-.06S19,5.84,19,5.73s0,0,0,0h-.11c-.17,0-.06-.06-.2-.09s-.14,0-.2,0a.53.53,0,0,1,.11-.26Zm.57.62A.16.16,0,0,0,19,6c0,.09,0,.09.06.14h0l.14.14v.06c-.11,0-.17,0-.17.11s0,0,.09.11,0,.06.06.09l0,.14c-.23,0-.17,0-.2.4-.09.06-.06,0-.06.2l.06.06a.1.1,0,0,1,0,.06.24.24,0,0,0,.2,0c.09,0,0,0,.14-.06s.06,0,.11-.11.09,0,.09-.14,0,0,0,0,.09,0,.09-.06.06-.06.09-.11,0-.17,0-.23.06,0,0,0,0,0,0,0,0,0,0,0,.06-.6,0-.65V5.9c0-.06,0-.09-.06-.14s0-.17-.09-.26l0-.14c-.09-.06-.06,0-.09-.11s-.06,0-.09-.14,0-.06-.23-.2,0-.06-.11-.09-.14-.14-.31.06a1.08,1.08,0,0,1-.14.17c0,.14,0,.09-.11.26s0,0-.06.14,0,0-.09.11v.09c.23.06.23,0,.34.06s.11,0,.2.06a.39.39,0,0,1,.09.11c.09,0,.09,0,.14.09Z"/><path class="cls-1" d="M12.44,5.61s0,0,0,.06h-.06s0,0-.09,0h-.06s0,0,0,0,0,0,0,0,0,0,0,.06l0,0h0c-.06.06-.06,0-.09,0s0,.11.23.14c0,.11,0,0,0,.09l-.14.17s-.14.17-.11.23.09-.09.17-.06,0,.11-.06.23,0,.06-.06.09v.11c0,.14.06,0,.17,0v.06c0,.11,0,.11,0,.2s.06,0,.06.23l-.11.06s0,0,0,.06,0,0,0,0,0,0-.09,0-.28-.14-.34-.2a.43.43,0,0,1-.14-.2.85.85,0,0,1-.11-.23,1.9,1.9,0,0,1,.06-1.19c-.06-.11,0-.09.06-.17s0-.06.11-.23,0-.09.06-.11L11.88,5h0l0,0L12,5H12c0-.06,0,0,.06-.06s0,0,.06,0-.06,0,.09,0,0,0,.06,0,.06,0,.11.06.06,0,0,.11a.73.73,0,0,1,.2.31v.06l0,.06s0,0,0,0,0-.06,0,.09,0,0,0,.06Zm-.88-.14c-.06.06,0,0-.09.06a1.68,1.68,0,0,0-.09.77c0,1,.06.4.09.77.17.14,0,.11.31.34a.7.7,0,0,0,.26.11c.17,0,.17,0,.17-.14l.09,0c.06-.4-.14-.2-.09-.4s0,0,.06-.09a.15.15,0,0,0-.23,0c0-.14,0-.06.06-.11s0-.06,0-.11a.18.18,0,0,0,.09-.23h0l-.14,0a.9.9,0,0,1,.14-.17A.75.75,0,0,0,12.33,6a.22.22,0,0,0-.2-.09V5.84c.06-.06.06,0,.11-.09s.14,0,.17,0,0-.06.11-.09.17,0,.2-.06a.13.13,0,0,0-.09-.17c0-.28,0-.14-.14-.34s0,0-.09-.17a.44.44,0,0,0-.17-.11s-.14,0-.2.06l-.34.31h0l0,0c-.06.06,0,0,0,.09s-.09,0-.09.2Z"/><path class="cls-1" d="M12,5H12L11.91,5l0,0h0l-.11.11s0,.06-.06.11-.14.11-.11.23-.11.06-.06.17a1.9,1.9,0,0,0-.06,1.19.85.85,0,0,0,.11.23.43.43,0,0,0,.14.2c.06.06.28.23.34.2s.06,0,.09,0,0,0,0,0,0,0,0-.06l.11-.06c0-.23,0-.14-.06-.23s0-.09,0-.2V6.83c-.11,0-.14.14-.17,0V6.72s0-.06.06-.09.17-.23.06-.23-.14.06-.17.06.09-.2.11-.23l.14-.17c0-.09,0,0,0-.09C12,6,12,5.92,12,5.84s0,0,.09,0h0l0,0c.06,0,0,0,0-.06s0,0,0,0,0,0,0,0-.06,0,0,0,0,0,0,0,0,0,0,.06-.11,0-.11.06A.09.09,0,0,0,12,6c.06,0,.09,0,.17,0s0,.09-.11.14,0,0-.11.14,0,.06-.09.23.11,0,.2,0,0,.09-.06.14,0,.06,0,.14-.11.06,0,.2.17-.09.2-.09,0,.17,0,.26.09,0,0,.11,0,.06-.06.11v0c0,.09,0,0,0,.06-.17,0-.06,0-.14-.06s-.09,0-.14-.06l-.26-.23v0c0-.06,0,0,0,0s0-.06-.09-.14l-.09-.4V6.21c0-.06,0-.09,0-.14V5.92c0-.06,0,0,0-.09a.36.36,0,0,0,0-.17h0c0-.09.06-.11.06-.17h0l.2-.31c0-.06.06-.06.06-.14s.06,0,.09,0,0,0,0,0,0,0,0,0,.11,0,.11-.09h.14c0,.06,0,0,0,.06l.11.11c0,.11,0,.06.06.11s0,.09.06.11,0,0,.06.11,0,.09.06.09,0,0,0,0a.22.22,0,0,1-.11.11l-.09,0h0c-.06,0,0,0-.06,0s0,0,0,.06h-.09c-.06,0,0,0-.06,0h.06c.11,0,.06,0,.09,0h.06s0,0,0-.06h.2s0,0,0-.06,0-.06,0-.09,0,0,0,0l0-.06V5.36a.73.73,0,0,0-.2-.31c0-.09,0-.06,0-.11s-.06-.06-.11-.06.09,0-.06,0-.06,0-.09,0,0,0-.06,0,0,0-.06.06Z"/><path class="cls-1" d="M19.11,6.15l0,.06,0,0c.06.06.09.09.09.14s0,.06,0,.09,0-.11-.23-.06c.06.11.26.28.23.48-.11,0-.11-.06-.2,0a.7.7,0,0,0,0,.26c-.06.23-.2,0,0,.34.11,0,.09,0,.17,0s.14,0,.28-.2l0,0,0,0c0-.06,0-.06,0,0l0,0s0,0,.06,0,0,0,.06-.26l0-.09c0-.06,0,0,0,0s0,0,0,0,0-.06,0,0V6.35l0-.37v.71a0,0,0,0,0,0,0c-.11.06,0,.11-.09.23l-.06.11-.06.09a.45.45,0,0,1-.2.2c-.06.06-.06,0-.11.06s0,.06-.11.06L19,7.29,19,7.14a.31.31,0,0,0,.06-.23c.17,0,.23,0,.17-.2s0,0-.06-.09l-.09-.14h0c.2,0,.11.14.2.06s0-.06,0-.11l-.06-.11-.17-.14v0Z"/><path class="cls-1" d="M20,12.16,20,12c.06-.09,0-.14.06-.2a2.56,2.56,0,0,1,.14-.26c0-.11,0-.17.06-.26a3.88,3.88,0,0,0,.06-.45.53.53,0,0,0,.06-.23c0-.17-.06,0-.09-.23a.24.24,0,0,1,.2.11l.2.28c.11.11.14.2.23.23S21,11,21,10.89s0-.11,0-.2.06,0,0-.43c0,0,0,0-.06,0s0,.68-.06.77-.09-.09-.14-.14l-.34-.45h-.06c-.06,0-.09,0-.09.06s0,.09,0,.14a1.66,1.66,0,0,1-.06.54,2.75,2.75,0,0,1-.14.57v0s0,0-.06,0l0,.2s0,0,0,0a.35.35,0,0,0-.06.14Z"/><path class="cls-1" d="M15.31,12l.06-.06s.06,0,.06-.06.09-.06.14-.09.17.14.28.17A.62.62,0,0,0,16,12c.06,0,0,0,.06.06l.06,0,.06,0h0c.06,0,0,0,0,.06s0-.06,0,0,0,0,0,.06,0,.06,0,.06,0,0,0,0,0,0,0,.06h0l-.06,0a.46.46,0,0,1-.26.09c0,.06-.51,0-.57,0s0,0-.06,0,0,0-.06,0-.06,0-.2-.2a1,1,0,0,1,.28-.2l0-.06c.06,0,0,0,.06,0Zm-.09,0c-.14,0-.17.06-.34.2,0,.14,0,.06.09.14s0,.09.09.11.06.06.2.09h0a4,4,0,0,0,.6,0,1.15,1.15,0,0,0,.26-.14c.11-.06.06,0,.11-.11s0,0,0-.11,0-.09-.14-.11S16,12,16,11.93a.21.21,0,0,0-.14,0c-.06-.14,0,0-.11-.14s-.28.06-.4.11l-.09.06c0,.06,0,0,0,.06Z"/><path class="cls-1" d="M18.82,5s0,0-.06,0a.1.1,0,0,0,0,.06c-.06.06-.06.06-.06.14s0,0,0,0,0,0,0,.06,0,0,0,0,0,0,0,0a.53.53,0,0,0-.11.26c.06.06.09,0,.2,0s0,.09.2.09H19c0,.06,0,0,0,0s.14.14.23.17,0,.06-.06.06l0,0c-.06,0-.06,0,0,0S19,6,19,6.09s.06,0,.09-.11.06.06,0,0c.14.06.2-.06.09-.14l-.14-.09h0l-.06,0s0,0,0,0h-.06s0,0-.06,0c-.17-.2-.45,0-.34-.23s.09,0,.06-.14,0,0,0,0,.06,0,0,0h.06V5.19l.09-.11c.06-.06.06,0,.06-.11s.09-.14.28,0,.09,0,.11.09,0,.11.14.11.06.14.14.2,0,0,0,.09,0,0,0,0l0,.06v0c0,.09,0,0,0,0s0,0,0,.06,0,0,0,0v.17l0,0s0,0,0,.09,0,0,.09.06,0,0,0-.09,0,0-.06-.06a.25.25,0,0,0,0-.2h0c0-.09,0-.09,0-.09s0,0,0,0,0-.14-.09-.2a.42.42,0,0,0-.06-.11c-.06-.09,0-.09-.09-.09L19.25,5c-.06-.11-.4-.28-.43-.06Z"/><path class="cls-1" d="M18.43,13.07l.06-.09c.06,0,0-.11,0-.17.2-.06,0-.17.17-.37.06,0,0,0,.11,0s0,.09,0,.11c.2.28.11.06.17.31s0,0,0,.09,0,0,0,.11,0,.11,0,.17,0,.23.17.2,0-.06.14-.17.11-.09.09-.23.06,0,.11-.09,0-.14.11-.26h0l.11-.17,0,0s0,0,0,0l-.06,0c0,.06,0,.06,0,0v0h0a.53.53,0,0,1-.11.31h0c-.17.17-.06.14-.2.28s0,.11-.2.11c-.09-.2,0-.45-.11-.65s0-.06-.09-.11a.21.21,0,0,0-.06-.11c-.06-.09-.09-.14-.23-.14s0,0,0,.09a.1.1,0,0,1,0,.09c0,.28,0,.14-.06.26a.59.59,0,0,1-.06.17v0h0Z"/><path class="cls-1" d="M21,10.23c0-.54-.09-.26-.11-.51l.28.06c.06.06,0,0,.11.06s.11.09.23.14.11,0,.14,0V9.72c-.14-.11,0,0-.09-.26a.17.17,0,0,0-.09-.17l.11.48v.11c0,.14-.2-.06-.23-.09s-.06,0-.11,0-.34-.2-.43-.06.14.14.14.34,0,.11,0,.17Z"/><path class="cls-1" d="M15.31,12c.11,0,.11,0,.17-.06s0-.06.09-.11l.06.06c.06,0,0,0,.06,0s0,0,.11.09a.62.62,0,0,0,.14.09c.09,0,0,0,.09.09h.14c0,.14,0,.06,0,.06v.09s0-.09,0,.06c0,0,0,0,0,0s0,0-.06,0a1.15,1.15,0,0,0-.26.14,1.27,1.27,0,0,0-.34,0c-.14,0-.2-.06-.28,0s.06-.06-.06,0,0,0,.06,0-.06,0,.06,0,.57.09.57,0a.46.46,0,0,0,.26-.09l.06,0h0s0,0,0-.06.06,0,0,0,.06,0,0-.06,0,0,0-.06,0,0,0,0,0-.06,0-.06h0l-.06,0-.06,0S16,12,16,12a.62.62,0,0,1-.14-.09c-.11,0-.14-.14-.28-.17s-.06.06-.14.09,0,0-.06.06Z"/><path class="cls-1" d="M20.69,5h0s.09.09.17.09.11,0,.17.09c.23,0,.2-.06.09-.17a1.31,1.31,0,0,0-.2-.2h-.06c.06.06.4.34.23.34l-.06,0c-.06-.06,0,0-.11-.06S20.83,5,20.69,5Z"/></g></g></svg>