<svg xmlns="http://www.w3.org/2000/svg" viewBox="0 0 37.66 38.4"><defs><style>.cls-1{fill:#4ab9b0;fill-rule:evenodd;}</style></defs><title>informacoes_1</title><g id="Camada_2" data-name="Camada 2"><g id="Camada_1-2" data-name="Camada 1"><path class="cls-1" d="M8.28,14.9c.2-2.58,3.17-4.59,5.13-5.9,1.36-.94,5.84-3.63,8.05-2.44.34,2.13.82,3.4,2.52,4.08a3.72,3.72,0,0,0,2.69-.43c1.64-.68,5.58-2.3,5.81-4.2a4.77,4.77,0,0,0-.91-2.41A10.54,10.54,0,0,0,28.07.53C26.85-.09,27-.07,25.35.1A34.37,34.37,0,0,0,.29,16.63,1.76,1.76,0,0,0,0,18.08a11.63,11.63,0,0,0,.48,2.86c.45,1.39,1.64,3.69,2.86,3.8,1.73.17,3.63-1.47,4.51-2.15a33.74,33.74,0,0,0,2.52-2.44c1-1,.45-2.78-.34-3.63A15.18,15.18,0,0,0,8.28,14.9Z"/><path class="cls-1" d="M16.67,29.73c0,1.42.06,3.83-1.5,4C13,33.87,13.5,31.06,14,30.35a2.35,2.35,0,0,1,2.64-.62Zm2.07,6.35a9.75,9.75,0,0,1-4.68.65c-3.69-.51-4.2-4.14-3.34-6.75a4.58,4.58,0,0,1,2.47-2.92,5.92,5.92,0,0,1,4.56-.17c3.88,1.62,2.3,8,.91,6.66-.51-.51,0-4-.09-5a7.7,7.7,0,0,0-4.54-.2c-2.83,1.08-3.23,5.24-.77,6.6a3.48,3.48,0,0,0,3.86-.62c.31.26.43.6.94.77a2.79,2.79,0,0,0,3.34-1.59,6.52,6.52,0,0,0-.06-5.44c-1.76-3.54-6.49-3.8-9.35-2.18a7.45,7.45,0,0,0-2.83,9.41c2,4,8.16,3.32,9.58,2.3Z"/><path class="cls-1" d="M16.87,12.12,36.4,17.85,32.09,32.5,23.25,29.9l0,1.39c1.19.23,2.64.77,3.86,1.11,5.5,1.56,5.67,2.32,6.52-.62C34.76,28,36,24,37,20.26c.37-1.28,1.25-2.95-.06-3.54a30.26,30.26,0,0,0-3.74-1.13C28.1,14.05,23,12.55,17.86,11c-2-.57-2.15.2-2.61,1.9-.74,2.61-3,9.58-3.37,11.51l1.47-.51Z"/><path class="cls-1" d="M20.64,19.3c.26.37,3.37,4.76,3.51,5.19.43-.11,8.08-3.71,9.1-4.2s2.66-.85,1.64-2c-.45-.23-4.34,1.79-5.19,2.15s-4.54,2.21-5,2.32l-1.84-2.58c-.31-.45-.54-.82-.88-1.3s-.62-.85-.88-1.25l-2.27-3.26c-.17-.23-.26-.43-.43-.62a.66.66,0,0,0-1.22.23c-.06.43.57,1.11.77,1.42l2.24,3.23c.14.23.31.4.45.62Z"/><path class="cls-1" d="M31.3,31.63a.64.64,0,0,0,.74-.68c0-.31-1.67-3.37-2-3.94l-1-1.93c-.2-.4-.23-.74-.74-.77a.64.64,0,0,0-.68.77l2.92,5.81c.2.37.31.71.71.74Z"/><path class="cls-1" d="M16.93,23.72c2.07.28,1.3.68,2.41.09.79-.43,1.76-.79,1.39-1.53s-1.5.09-2,.37a17.06,17.06,0,0,0-1.81,1.08Z"/></g></g></svg>