<svg xmlns="http://www.w3.org/2000/svg" viewBox="0 0 29.11 38.38"><defs><style>.cls-1{fill:#4ab9b0;fill-rule:evenodd;}</style></defs><title>nota-fiscal_1</title><g id="Camada_2" data-name="Camada 2"><g id="Camada_1-2" data-name="Camada 1"><polygon class="cls-1" points="10.01 9.72 0.99 9.72 10.01 0.68 10.01 9.72"/><path class="cls-1" d="M4.11,28H25.26v4.68H4.11Zm21.17-4.82-10.6,0-10.63,0V18.45l5.39,0h15.9c0,1.53-.06,3.12-.06,4.68ZM20.69,15l-.06,1.22a4.33,4.33,0,0,1-1,0l0-1.16A3,3,0,0,1,17,13.32a3.87,3.87,0,0,1-.31-1.08L18.48,12a2,2,0,0,0,1.13,1.42V10.77a5.94,5.94,0,0,1-1-.37,2.92,2.92,0,0,1-.79-.51A2.54,2.54,0,0,1,17,8.05a2.48,2.48,0,0,1,.77-1.93,2.94,2.94,0,0,1,1.87-.79l0-.65h1v.65A3,3,0,0,1,22.37,6a2.8,2.8,0,0,1,.88,1.56l-1.76.23a2.88,2.88,0,0,0-.31-.65,1.51,1.51,0,0,0-.54-.37V9.24c1.45.45,2.89.82,2.89,2.81a2.63,2.63,0,0,1-.26,1.19,2.66,2.66,0,0,1-1.45,1.39,4,4,0,0,1-1.13.34ZM0,38.38H29.11V0H11.4c0,3.71,0,7.34,0,11.06L0,11Z"/><path class="cls-1" d="M20.64,13.55a1.62,1.62,0,0,0,.79-.4,1.21,1.21,0,0,0,0-1.7,1.86,1.86,0,0,0-.82-.4Z"/><path class="cls-1" d="M19.62,8.93V6.72a1.19,1.19,0,0,0-.91,1.11,1.18,1.18,0,0,0,.91,1.11Z"/><path class="cls-1" d="M19.59,16.16a4.33,4.33,0,0,0,1,0L20.69,15h-.06a8.15,8.15,0,0,0,0,1.19Z"/></g></g></svg>