<svg xmlns="http://www.w3.org/2000/svg" viewBox="0 0 38.38 33.19"><defs><style>.cls-1{fill:#4ab9b0;fill-rule:evenodd;}</style></defs><title>noticias_1</title><g id="Camada_2" data-name="Camada 2"><g id="Camada_1-2" data-name="Camada 1"><path class="cls-1" d="M1.7,28.66V3.94c0-1.33.2-1.81,1.53-1.81H32.4a4.12,4.12,0,0,1,1.11.17c.34,1.36.17,5.61.17,7.09l0,19.87L34,30.9H4.34a3.45,3.45,0,0,1-1.79-.62,1.79,1.79,0,0,1-.85-1.62ZM36,30.9c-.43,0-.51-1.22-.51-1.7V4.54c.31,0,1-.06,1,.43V27.72c0,.54,0,3.17-.51,3.17ZM0,4.37v24a4.19,4.19,0,0,0,2.75,4.34,5.66,5.66,0,0,0,1.93.45H36c2.58,0,2.38-4,2.38-6.24V5.22a3.2,3.2,0,0,0-.77-2.15,2.72,2.72,0,0,0-2.13-.77C35.32,1.93,35.09,0,33,0H2.89C.54,0,0,2.32,0,4.37Z"/><path class="cls-1" d="M3.66,7.09c0,1.59-.17,5.75.31,7a1.7,1.7,0,0,0,1.56,1.16h8.11c1.36,0,1.87-1.36,1.87-2.72V6.24c0-1.25-.45-2.72-1.87-2.72H5.7c-1.84,0-2,1.73-2,3.57Z"/><path class="cls-1" d="M3.49,19c0,.6.37,1.19.94,1.19H30.78c1.25,0,1.25-2.38,0-2.38H4.42c-.57,0-.94.62-.94,1.19Z"/><path class="cls-1" d="M18.77,4.79c0,.54.37,1.19.94,1.19H31.29c1.22,0,1.22-2.38,0-2.38H19.7c-.57,0-.94.65-.94,1.19Z"/><path class="cls-1" d="M18.77,14.43c0,.54.37,1.19.94,1.19H31.29c1.22,0,1.22-2.38,0-2.38H19.7c-.57,0-.94.65-.94,1.19Z"/><path class="cls-1" d="M18.26,28.32c0,.62.09,1.47.94,1.47H30.7c1.3,0,1.13-2.41.17-2.41H19.11a1,1,0,0,0-.85.94Z"/><path class="cls-1" d="M18.26,23.64c0,.54.11,1.28.85,1.28H30.78a.6.6,0,0,0,.6-.34c.51-.71.31-2-.85-2H19.36a1,1,0,0,0-1.11,1.11Z"/><path class="cls-1" d="M18.77,9.55c0,.54.28,1.19.85,1.19H31.38c1.11,0,1.13-2.3,0-2.3H19.62a.6.6,0,0,0-.6.34,2.44,2.44,0,0,0-.26.77Z"/><path class="cls-1" d="M3.57,28.23c0,.62.11,1.39.85,1.39H14.74c1.16,0,1.16-2.41-.09-2.41H4.51a1.09,1.09,0,0,0-.94,1Z"/><path class="cls-1" d="M3.57,23.56c0,.74.31,1.28,1.11,1.28h9.81c1.56,0,1.36-2.38.26-2.38H4.42c-.54,0-.85.54-.85,1.11Z"/></g></g></svg>