<svg xmlns="http://www.w3.org/2000/svg" viewBox="0 0 38.4 29.15"><defs><style>.cls-1{fill:#4ab9b0;}.cls-1,.cls-2{fill-rule:evenodd;}.cls-2{fill:#3faea7;}</style></defs><title>pasta</title><g id="Camada_2" data-name="Camada 2"><g id="Camada_1-2" data-name="Camada 1"><path class="cls-1" d="M32.68,29.11a3.71,3.71,0,0,0,2.52-1.19,4.73,4.73,0,0,0,1-2.69L37.32,19l.85-4.73a9.73,9.73,0,0,0,.23-1.59,3.61,3.61,0,0,0-2.27-3.29A3.87,3.87,0,0,0,34.6,9.1c-1,.06-2.15,0-3.2,0h-19a12,12,0,0,0-3.06.17,3.45,3.45,0,0,0-1.87,1.28,5.06,5.06,0,0,0-.82,2.38L4.16,26.39c-.17.88-.37,1.81-.51,2.72,2.41,0,4.85,0,7.26,0Z"/><path class="cls-2" d="M32.68,29.11H10.91c-2.41,0-4.85,0-7.26,0,.14-.91.34-1.84.51-2.72L6.6,12.93a5.06,5.06,0,0,1,.82-2.38A3.45,3.45,0,0,1,9.29,9.27a12,12,0,0,1,3.06-.17h19c1,0,2.18.06,3.2,0A10.14,10.14,0,0,0,34.35,6,3.66,3.66,0,0,0,32.87,4.2a4.54,4.54,0,0,0-2.75-.54H16.94c-.48,0-.51.06-.68-.14l-.43-.43L15,2.27,13.37.62c-.68-.68-.48-.62-1-.62H4.1A3.92,3.92,0,0,0,1.52.71C-.29,2.13,0,3.63,0,5.78v16.5c0,1.11,0,2.24,0,3.32A3.81,3.81,0,0,0,1,28a3.74,3.74,0,0,0,2.15,1.13,10.15,10.15,0,0,0,1.62.06c2.83,0,27.81,0,27.95,0Z"/></g></g></svg>