<svg xmlns="http://www.w3.org/2000/svg" viewBox="0 0 36.98 38.4"><defs><style>.cls-1{fill:#4ab9b0;fill-rule:evenodd;}</style></defs><title>rescisoes</title><g id="Camada_2" data-name="Camada 2"><g id="Camada_1-2" data-name="Camada 1"><path class="cls-1" d="M2.75,15.53c1-.43,20-.4,20.86.06-.26,1.36-1,.91-4.82.88-1.87,0-3.71,0-5.58,0l-8.42,0c-2.21,0-1.62.23-2-1ZM7.59,9.21c-3.77,0-4.62.45-4.85-1.08,2.66-.06,19.5-.45,20.86.14-.2,1.33-1,1-2.49.94ZM2.75,22.76c1.33-.45,10.49-.2,12.76-.17,8.87.09,4.51.57,10.8-2,.28-3.94,0-8.56.06-12.59.06-5.75-.91-5.81-6.49-5.75l-.28,3.49c-1.3.31-11.23.26-13,.06L6.43,2.3C-1.51,2,.17,4.31.11,11.62c0,5.19.06,10.35,0,15.53-.06,9.5-.62,9.5,6,9.58,5.16.09,10.35,0,15.51,0-.94-2.13-2-2.18-2.55-5.73-3-.17-14.6.37-16.24-.23.14-1,.14-.94,1.22-1l6.41,0c2.72,0,5.73.11,8.39-.06.4-.88.45-2.32.85-3.32.51-1.36,1.13-1.62,1.5-2.72l-14.57,0c-3.26,0-3.6.43-3.83-1Z"/><path class="cls-1" d="M33.08,32.77A4.21,4.21,0,0,1,31,34.58l-2.47-2.47-2.41,2.52a5.08,5.08,0,0,1-2.18-1.87c.54-1.13,1.76-1.81,2.47-2.81l-2.52-2.44A4.94,4.94,0,0,1,26,25.37l2.52,2.52L31,25.34a4.31,4.31,0,0,1,2.13,2.18L30.64,30c.71,1,2,1.64,2.44,2.81ZM20.15,31.49c1.87,11.06,18.65,7.94,16.67-3s-18.57-8.19-16.67,3Z"/><path class="cls-1" d="M18.39.34a.68.68,0,0,1-.2-.09L15.25.06C7.42.09,7.91-.65,7.91,2.44c0,3.26.82,2.35,4.28,2.32l5.56-.06c1.42-.28,1-3.32.65-4.37Z"/></g></g></svg>