<svg xmlns="http://www.w3.org/2000/svg" viewBox="0 0 30.36 38.38"><defs><style>.cls-1{fill:#4ab9b0;fill-rule:evenodd;}</style></defs><title>solicitacoes_1</title><g id="Camada_2" data-name="Camada 2"><g id="Camada_1-2" data-name="Camada 1"><path class="cls-1" d="M6.43,1.64H23V6.15c0,.48.26,1,.74,1h4.93V32.09H6.43Zm18.4.91,3,2.95-3,0ZM4.76,1.79V31.95a2,2,0,0,0,1.81,1.79h22a1.92,1.92,0,0,0,1.79-1.79V6.29c0-1.11-2.69-3.46-3.6-4.2S25.06,0,24.09,0H6.58A1.92,1.92,0,0,0,4.76,1.79Z"/><path class="cls-1" d="M0,6.89V36.6a2,2,0,0,0,.57,1.22,1.71,1.71,0,0,0,1.22.57h24a2.45,2.45,0,0,0,1-.62c1.7-1.93-1.11-3.09-1.16-1H1.64V6.43c.68,0,1.19-.23,1.19-.91C2.83,4.05,0,4.65,0,6.89Z"/><path class="cls-1" d="M10.32,16.78c.26.51.43.91,1.19.91H23.78a.92.92,0,1,0,0-1.81H11.51c-.77,0-.94.4-1.19.91Z"/><path class="cls-1" d="M10.32,26.39c.26.51.43.91,1.19.91h12c2,0,1.62-1.81.31-1.81H11.51c-.77,0-.94.4-1.19.91Z"/><path class="cls-1" d="M10.32,21.6c.26.48.43.88,1.19.88h12c2,0,1.62-1.79.31-1.79H11.51c-.77,0-.94.4-1.19.91Z"/><path class="cls-1" d="M10.32,12c.26.51.43.91,1.19.91h7.17c2,0,1.62-1.81.31-1.81H11.51c-.77,0-.94.4-1.19.91Z"/></g></g></svg>