<svg xmlns="http://www.w3.org/2000/svg" viewBox="0 0 85 63.04"><defs><style>.cls-1{fill:#3faea7;fill-rule:evenodd;}</style></defs><title>documento</title><g id="Camada_2" data-name="Camada 2"><g id="Camada_1-2" data-name="Camada 1"><path class="cls-1" d="M9.33,63h46.2L58,62.1c8.08-3.37,7.26-12.19,7.26-18.57V14.34H84c1.73-2.61,1-4.71-.68-8.05a12,12,0,0,0-5.64-5.07c-4.56-1.87-14.2-1-20.47-1H35.78C31.53.25,26.34,0,23.16,3.77c-1.25,1.5-.54,3.49,1.59,3.51,2,.06,2.27-2.58,6.66-2.69l32.14,0C61.26,8,60.86,9,60.89,14.68c0,6.83.45,36-.37,38.58-2.47,7.68-13.12,6.89-14.88-.14-.51-2,.17-3.77-2.18-4.2H24C24,43.74,25.46,35,19.7,38.86V48.92H.94L0,50c-.06,4.2.51,6,2.41,8.5,2.18,2.92,4.11,3.15,6.26,4.17.79.37.23.06.65.37Z"/><path class="cls-1" d="M5,13,21.29,29.53l8.53-8.39L13.41,4.87c-1.59.48-3.23,2.72-4.34,3.86A34.23,34.23,0,0,0,5,13Z"/><path class="cls-1" d="M23.39,31.8l7.37,3.34c1.33.6,2.38,1,3.66,1.7,6,3,2.38-3,.45-6.83-1.11-2.27-2-4.51-3.12-6.6-1.25.34-8.05,7.14-8.36,8.39Z"/><path class="cls-1" d="M3,11,11.4,2.69C9.7,1.5,9.27.54,6.78.08,1.51-.88-3.14,6.89,3,11Z"/><path class="cls-1" d="M40.45,14c-.28,1.22-.6,3,1.33,3,2.24,0,12.39.4,13.72-.34l.88-.82s.09-.11.14-.17c-.23-1-.51-2-1.67-2-2.47,0-12.73-.34-14.4.31Z"/><path class="cls-1" d="M40.45,28.12c-.09.31-1.33,3,2,3,2.15,0,11.74.4,13-.34l1-1c-.23-1-.51-2-1.67-2-2.47,0-12.73-.31-14.4.34Z"/><path class="cls-1" d="M40.11,22.39a1.93,1.93,0,0,0,1.67,1.7c2.24,0,12.39.37,13.72-.34.43-.23.23-.11.57-.45l.45-.57c-.23-1-.51-2-1.67-2H41.79a1.93,1.93,0,0,0-1.67,1.67Z"/></g></g></svg>