<svg xmlns="http://www.w3.org/2000/svg" viewBox="0 0 50 50"><defs><style>.cls-1{fill:#6484c8;fill-rule:evenodd;}</style></defs><title>download</title><g id="Camada_2" data-name="Camada 2"><g id="Camada_1-2" data-name="Camada 1"><path class="cls-1" d="M0,34.87v7.23A8.26,8.26,0,0,0,7.91,50H42.09A8.26,8.26,0,0,0,50,42.09V34.87a1.7,1.7,0,0,0-3.2-.65c-.34.71.09,5.73-.2,7.71a3.94,3.94,0,0,1-.6,2c-1.19,2-2.81,2.72-5.19,2.72H9.18C6,46.69,3.74,45.07,3.4,42c-.2-1.7.06-7.09-.14-7.65C2.72,32.77,0,33,0,34.87Z"/><path class="cls-1" d="M23.33,26.28c-.43-.28-5.24-5.22-6.07-6s-2-2.58-3.46-1.36a1.51,1.51,0,0,0-.62,1.53c0,.74,2.18,2.64,2.78,3.2l7.46,7.48c.79.79,1,.54,2.27.54.31-.62,0-.26.65-.91L35.09,22c.43-.43,1.19-1.13,1.11-1.93a1.89,1.89,0,0,0-1.62-1.62c-1,0-1.67.94-2.24,1.5-.74.77-5.27,5.36-5.67,5.64V1.84a1.71,1.71,0,0,0-.37-1.3A1.86,1.86,0,0,0,25.17,0h-.45c-.74.09-1.39.6-1.39,1.84Z"/></g></g></svg>