<svg xmlns="http://www.w3.org/2000/svg" viewBox="0 0 45.01 45.01"><defs><style>.cls-1{fill:#5c5d5d;fill-rule:evenodd;}</style></defs><title>shared</title><g id="Camada_2" data-name="Camada 2"><g id="Camada_1-2" data-name="Camada 1"><path class="cls-1" d="M30,7.29A5.76,5.76,0,0,0,30.16,9l-17,8.48c-.91-.68-1.5-1.64-3.54-2.21A7.52,7.52,0,0,0,0,22.25a7.4,7.4,0,0,0,4.76,7.26,7.85,7.85,0,0,0,4.85.23,7.38,7.38,0,0,0,2.78-1.53c.31-.23.51-.48.79-.68l17,8.42a6.91,6.91,0,0,0,0,3.32,7.45,7.45,0,0,0,2,3.54l.45.43a3.34,3.34,0,0,0,.51.37,7.18,7.18,0,0,0,4,1.42h.79a7.48,7.48,0,0,0,3.91-1.36,7.18,7.18,0,0,0,2.47-2.89A7.49,7.49,0,0,0,45,38.1V37a7.88,7.88,0,0,0-2.13-4.71s0,0-.06,0a6.49,6.49,0,0,0-2.15-1.53,7.36,7.36,0,0,0-6.49.06,9.76,9.76,0,0,0-2.35,1.76L14.88,24a14.17,14.17,0,0,0,.14-1.7,9.71,9.71,0,0,0-.17-1.42l17-8.45a8.94,8.94,0,0,0,2.3,1.73,7.39,7.39,0,0,0,8.76-1.47l.34-.34a3.34,3.34,0,0,0,.37-.51,7.94,7.94,0,0,0,.71-1.16A7.05,7.05,0,0,0,45,8V7.14A7.49,7.49,0,0,0,43.65,3.2,7.74,7.74,0,0,0,38.07,0H36.79a7.14,7.14,0,0,0-2.47.68,9,9,0,0,0-1.64,1,1.71,1.71,0,0,0-.23.23.5.5,0,0,1-.14.11A7.51,7.51,0,0,0,30,7.29Z"/></g></g></svg>